<?xml version="1.0" standalone="no"?>
<!DOCTYPE svg PUBLIC "-//W3C//DTD SVG 1.1//EN" "http://www.w3.org/Graphics/SVG/1.1/DTD/svg11.dtd" >
<svg xmlns="http://www.w3.org/2000/svg">
<metadata>
<json>
<![CDATA[
{
	"fontFamily": "device-icons",
	"majorVersion": 1,
	"minorVersion": 0,
	"version": "Version 1.0",
	"fontId": "device-icons",
	"psName": "device-icons",
	"subFamily": "Regular",
	"fullName": "device-icons",
	"description": "Font generated by IcoMoon."
}
]]>
</json>
</metadata>
<defs>
<font id="device-icons" horiz-adv-x="1024">
<font-face units-per-em="1024" ascent="960" descent="-64" />
<missing-glyph horiz-adv-x="1024" />
<glyph unicode="&#x20;" horiz-adv-x="512" d="" />
<glyph unicode="&#x3c;" glyph-name="BIQ" data-tags="BIQ" d="M252.062 844.8h519.877c26.102 0 47.262-20.376 47.262-45.511v-728.178c0-25.135-21.16-45.511-47.262-45.511h-519.877c-26.102 0-47.262 20.376-47.262 45.511v728.178c0 25.135 21.16 45.511 47.262 45.511zM795.569 207.644v591.644c0 12.568-10.58 22.756-23.631 22.756h-519.877c-13.051 0-23.631-10.188-23.631-22.756v-591.644h567.138zM795.569 184.889h-567.138v-113.778c0-12.568 10.58-22.756 23.631-22.756h519.877c13.051 0 23.631 10.188 23.631 22.756v113.778zM664.558 640.663c-1.111-6.895-4.301-10.809-9.736-13.266-6.049-2.731-11.106-0.592-15.596 3.322-14.604 12.743-30.271 23.939-48.16 32.154-20.346 9.33-41.59 14.746-64.016 17.226-49.719 5.552-93.601-7.987-133.467-35.681-7.326-5.097-13.729-11.423-20.441-17.294-4.726-4.119-9.807-7.327-16.471-5.302-10.587 3.163-13.659 15.087-5.293 23.029 8.838 8.374 18.337 16.27 28.31 23.347 31.736 22.505 67.348 35.635 106.693 39.071 65.575 5.734 122.478-13.266 170.85-56.047 3.143-2.776 4.915-7.009 7.326-10.559zM511.511 621.396c-33.839 0.228-61.558-11.947-85.307-33.769-8.838-8.124-20.559-4.847-24.292 6.326-2.15 6.576 2.623 10.581 6.428 14.177 21.244 20.139 46.293 33.382 76.044 38.161 35.872 5.78 69.711 1.024 100.785-17.59 9.098-5.439 17.44-12.083 25.687-18.705 5.931-4.733 6.262-13.107 1.654-18.546-4.821-5.712-13.068-6.781-19.59-2.185-7.089 5.052-13.611 10.968-21.031 15.497-18.574 11.241-38.944 17.067-60.377 16.634zM513.148 590.184c19.85-0.478 39.227-7.191 55.32-21.8 7.042-6.417 7.727-13.926 2.103-19.911-5.388-5.734-14.060-5.962-20.89 0-19.212 16.794-56.147 21.959-79.565-1.434-6.546-6.508-15.006-6.508-20.724-0.796-5.577 5.552-5.128 14.040 1.252 20.116 16.731 15.906 36.982 23.575 62.503 23.825zM512 105.244c-26.102 0-47.262 7.641-47.262 17.067s21.16 17.067 47.262 17.067c26.102 0 47.262-7.641 47.262-17.067s-21.16-17.067-47.262-17.067z" />
<glyph unicode="&#x41;" glyph-name="double_tap" data-tags="double_tap" d="M524.795 506.077v-128.531c0-7.066-5.709-12.8-12.8-12.8-7.066 0-12.8 5.734-12.8 12.8v252.134c0 15.77-4.429 33.894-39.091 33.894-34.637 0-39.066-18.125-39.066-33.894v-378.931c0-7.066-5.734-12.8-12.8-12.8s-12.8 5.734-12.8 12.8v148.505c-5.923 0.782-14.819 1.514-22.6 1.514-19.354 0-32.691-16.538-35.712-44.262-0.077-0.742-4.992-37.299-5.786-84.48-0.973-60.288 9.472-85.709 33.254-119.859 33.229-47.642 103.424-103.168 104.141-103.706 5.555-4.378 6.502-12.442 2.15-17.997-2.56-3.2-6.298-4.864-10.086-4.864-2.765 0-5.555 0.896-7.91 2.739-2.995 2.355-73.907 58.47-109.286 109.184-26.522 38.042-38.963 67.942-37.862 134.912 0.819 48.794 5.76 85.606 5.965 87.168 4.454 41.037 27.904 66.765 61.133 66.765 6.631 0 15.171-0.49 22.6-1.33v204.643c0 37.811 23.578 59.494 64.666 59.494 41.114 0 64.691-21.683 64.691-59.494v-96.989c9.112 2.213 21.872 4.163 38.538 4.163 25.907 0 44.912-12.283 55.522-34.873 8.096 2.863 19.437 4.888 34.549 3.446 35.451-3.353 48.703-25.825 53.42-49.982 19.092 1.408 34.1-2.401 45.69-11.609 19.866-15.77 24.013-43.366 25.446-65.638 2.893-45.85 3.866-70.4 3.866-125.363 0-138.726-75.11-218.317-78.285-221.645-2.509-2.586-5.862-3.917-9.216-3.917-3.2 0-6.4 1.203-8.858 3.584-5.094 4.864-5.274 12.954-0.384 18.074 0.717 0.742 71.142 75.955 71.142 203.904 0 54.298-0.947 78.515-3.814 123.75-1.587 24.909-6.605 39.91-15.821 47.206-6.26 4.971-15.268 7.016-27.361 6.187 0.023-1.372 0.033-2.728 0.033-4.064v-94.464c0-7.066-5.734-12.8-12.8-12.8s-12.8 5.734-12.8 12.8v94.464c0 42.419-12.493 52.122-32.64 54.016-12.171 1.124-20.047-0.622-24.668-2.418 1.459-8.196 2.206-17.171 2.206-26.878v-84.608c0-7.066-5.734-12.8-12.8-12.8s-12.8 5.734-12.8 12.8v84.608c0 60.621-29.824 60.621-39.629 60.621-19.355 0-32.041-3.050-38.538-5.178v0zM589.711 615.524c-7.066 0-12.8 5.734-12.8 12.8 0 63.923-52.429 115.942-116.864 115.942s-116.864-52.019-116.864-115.942c0-7.066-5.734-12.8-12.8-12.8s-12.8 5.734-12.8 12.8c0 78.054 63.923 141.542 142.464 141.542s142.464-63.488 142.464-141.542c0-7.066-5.734-12.8-12.8-12.8zM665.149 615.524c-7.066 0-12.8 5.734-12.8 12.8 0 105.242-86.272 190.874-192.282 190.874-106.035 0-192.307-85.632-192.307-190.874 0-7.066-5.734-12.8-12.8-12.8s-12.8 5.734-12.8 12.8c0 119.373 97.741 216.474 217.907 216.474 120.141 0 217.882-97.101 217.882-216.474 0-7.066-5.734-12.8-12.8-12.8z" />
<glyph unicode="&#x42;" glyph-name="duo_socket_EU" data-tags="duo_socket_EU" d="M748.393 25.6h-472.781c-25.677 0-46.566 20.89-46.566 46.566v726.067c0 25.677 20.89 46.566 46.566 46.566h472.781c25.677 0 46.566-20.89 46.566-46.566v-726.067c0-25.677-20.89-46.566-46.566-46.566zM275.612 819.2c-11.571 0-20.966-9.395-20.966-20.966v-726.067c0-11.571 9.395-20.966 20.966-20.966h472.781c11.546 0 20.966 9.395 20.966 20.966v726.067c0 11.571-9.421 20.966-20.966 20.966h-472.781zM512 77.174c-95.002 0-172.288 77.312-172.288 172.314 0 94.976 77.286 172.262 172.288 172.262s172.288-77.286 172.288-172.262c0-95.002-77.286-172.314-172.288-172.314zM512 396.15c-80.896 0-146.688-65.792-146.688-146.662 0-80.922 65.792-146.714 146.688-146.714s146.688 65.792 146.688 146.714c0 80.87-65.792 146.662-146.688 146.662zM512 448.65c-95.002 0-172.288 77.286-172.288 172.288 0 94.976 77.286 172.288 172.288 172.288s172.288-77.312 172.288-172.288c0-95.002-77.286-172.288-172.288-172.288zM512 767.626c-80.896 0-146.688-65.792-146.688-146.688s65.792-146.688 146.688-146.688c80.896 0 146.688 65.792 146.688 146.688s-65.792 146.688-146.688 146.688zM584.737 218.299c-17.203 0-31.181 13.952-31.181 31.181 0 17.203 13.978 31.155 31.181 31.155s31.181-13.952 31.181-31.155c0-17.229-13.978-31.181-31.181-31.181zM439.263 218.299c-17.203 0-31.181 13.952-31.181 31.181 0 17.203 13.978 31.155 31.181 31.155s31.181-13.952 31.181-31.155c0-17.229-13.978-31.181-31.181-31.181zM584.737 589.775c-17.203 0-31.181 13.952-31.181 31.155 0 17.229 13.978 31.181 31.181 31.181s31.181-13.952 31.181-31.181c0-17.203-13.978-31.155-31.181-31.155zM439.263 589.775c-17.203 0-31.181 13.952-31.181 31.155 0 17.229 13.978 31.181 31.181 31.181s31.181-13.952 31.181-31.181c0-17.203-13.978-31.155-31.181-31.155z" />
<glyph unicode="&#x43;" glyph-name="duo_socket_IN" data-tags="duo_socket_IN" d="M875.028 152.261h-726.067c-25.677 0-46.566 20.864-46.566 46.541v472.806c0 25.677 20.89 46.541 46.566 46.541h726.067c25.677 0 46.566-20.864 46.566-46.541v-472.806c0-25.677-20.89-46.541-46.566-46.541zM148.961 692.549c-11.571 0-20.966-9.395-20.966-20.941v-472.806c0-11.546 9.395-20.941 20.966-20.941h726.067c11.546 0 20.966 9.395 20.966 20.941v472.806c0 11.546-9.421 20.941-20.966 20.941h-726.067zM332.749 518.326c17.69 0 32.026-14.362 32.026-32.026 0-17.69-14.336-32.051-32.026-32.051s-32.026 14.362-32.026 32.051c0 17.664 14.336 32.026 32.026 32.026zM268.675 406.2c17.69 0 32.026-14.362 32.026-32.051s-14.336-32.026-32.026-32.026c-17.69 0-32.026 14.336-32.026 32.026s14.336 32.051 32.026 32.051zM396.826 406.2c17.69 0 32.026-14.362 32.026-32.051s-14.336-32.026-32.026-32.026c-17.69 0-32.026 14.336-32.026 32.026s14.336 32.051 32.026 32.051zM691.238 518.326c17.69 0 32.026-14.362 32.026-32.026 0-17.69-14.336-32.051-32.026-32.051s-32.026 14.362-32.026 32.051c0 17.664 14.336 32.026 32.026 32.026zM627.162 406.2c17.69 0 32.026-14.362 32.026-32.051s-14.336-32.026-32.026-32.026c-17.69 0-32.026 14.336-32.026 32.026s14.336 32.051 32.026 32.051zM755.313 406.2c17.69 0 32.026-14.362 32.026-32.051s-14.336-32.026-32.026-32.026c-17.69 0-32.026 14.336-32.026 32.026s14.336 32.051 32.026 32.051z" />
<glyph unicode="&#x44;" glyph-name="duo_socket_NA" data-tags="duo_socket_NA" d="M748.393 25.6h-472.781c-25.677 0-46.566 20.89-46.566 46.566v726.067c0 25.677 20.89 46.566 46.566 46.566h472.781c25.677 0 46.566-20.89 46.566-46.566v-726.067c0-25.677-20.89-46.566-46.566-46.566zM275.612 819.2c-11.571 0-20.966-9.395-20.966-20.966v-726.067c0-11.571 9.395-20.966 20.966-20.966h472.781c11.546 0 20.966 9.395 20.966 20.966v726.067c0 11.571-9.421 20.966-20.966 20.966h-472.781zM619.213 456.174h-215.654l-44.314 80.794c-38.656 54.989-38.656 130.432 0.742 186.598l44.57 62.131h213.786l46.643-66.202c38.144-54.374 38.144-127.411 0-181.734l-45.773-81.587zM418.714 481.774h185.523l39.117 69.606c32.64 46.618 32.64 107.827 0.691 153.395l-38.963 55.322h-187.366l-36.864-51.354c-33.152-47.232-33.152-110.899 0.077-158.259l37.786-68.71zM619.213 84.7h-215.654l-44.314 80.794c-38.656 54.989-38.656 130.432 0.742 186.598l44.57 62.131h213.786l46.643-66.202c38.144-54.374 38.144-127.411 0-181.734l-45.773-81.587zM418.714 110.3h185.523l39.117 69.606c32.64 46.618 32.64 107.827 0.691 153.395l-38.963 55.322h-187.366l-36.864-51.354c-33.152-47.232-33.152-110.899 0.077-158.259l37.786-68.71zM428.874 713.7c7.066 0 12.8-4.736 12.8-10.573v-82.227c0-5.862-5.734-10.573-12.8-10.573s-12.8 4.71-12.8 10.573v82.227c0 5.837 5.734 10.573 12.8 10.573zM595.126 713.7c7.066 0 12.8-4.736 12.8-10.573v-82.227c0-5.862-5.734-10.573-12.8-10.573s-12.8 4.71-12.8 10.573v82.227c0 5.837 5.734 10.573 12.8 10.573zM512 598.275c7.066 0 12.8-4.736 12.8-10.547v-52.813c0-5.837-5.734-10.573-12.8-10.573s-12.8 4.736-12.8 10.573v52.813c0 5.811 5.734 10.547 12.8 10.547zM428.874 342.226c7.066 0 12.8-4.736 12.8-10.547v-82.253c0-5.862-5.734-10.547-12.8-10.547s-12.8 4.685-12.8 10.547v82.253c0 5.811 5.734 10.547 12.8 10.547zM595.126 342.226c7.066 0 12.8-4.736 12.8-10.547v-82.253c0-5.862-5.734-10.547-12.8-10.547s-12.8 4.685-12.8 10.547v82.253c0 5.811 5.734 10.547 12.8 10.547zM512 226.801c7.066 0 12.8-4.736 12.8-10.547v-52.813c0-5.837-5.734-10.573-12.8-10.573s-12.8 4.736-12.8 10.573v52.813c0 5.811 5.734 10.547 12.8 10.547z" />
<glyph unicode="&#x45;" glyph-name="duo_socket_UK" data-tags="duo_socket_UK" d="M875.028 152.261h-726.067c-25.677 0-46.566 20.864-46.566 46.541v472.806c0 25.677 20.89 46.541 46.566 46.541h726.067c25.677 0 46.566-20.864 46.566-46.541v-472.806c0-25.677-20.89-46.541-46.566-46.541zM148.961 692.549c-11.571 0-20.966-9.395-20.966-20.941v-472.806c0-11.546 9.395-20.941 20.966-20.941h726.067c11.546 0 20.966 9.395 20.966 20.941v472.806c0 11.546-9.421 20.941-20.966 20.941h-726.067zM699.039 528.724c5.734 0 20.787-4.659 20.787-10.394v-72.73c0-5.76-15.053-10.394-20.787-10.394s-20.787 4.634-20.787 10.394v72.73c0 5.734 15.053 10.394 20.787 10.394zM657.475 362.476c0-5.76-3.635-20.787-8.090-20.787h-56.576c-4.454 0-8.064 15.027-8.064 20.787 0 5.734 3.61 20.787 8.064 20.787h56.576c4.454 0 8.090-15.053 8.090-20.787zM813.338 362.476c0-5.76-3.635-20.787-8.090-20.787h-56.576c-4.454 0-8.064 15.027-8.064 20.787 0 5.734 3.61 20.787 8.064 20.787h56.576c4.454 0 8.090-15.053 8.090-20.787zM324.961 528.724c5.734 0 20.787-4.659 20.787-10.394v-72.73c0-5.76-15.053-10.394-20.787-10.394s-20.787 4.634-20.787 10.394v72.73c0 5.734 15.053 10.394 20.787 10.394zM283.4 362.476c0-5.76-3.61-20.787-8.090-20.787h-56.55c-4.48 0-8.090 15.027-8.090 20.787 0 5.734 3.61 20.787 8.090 20.787h56.55c4.48 0 8.090-15.053 8.090-20.787zM439.263 362.476c0-5.76-3.61-20.787-8.090-20.787h-56.55c-4.48 0-8.090 15.027-8.090 20.787 0 5.734 3.61 20.787 8.090 20.787h56.55c4.48 0 8.090-15.053 8.090-20.787z" />
<glyph unicode="&#x46;" glyph-name="fan_off" data-tags="fan_off" d="M577.993 285.088c-15.74-6.712-33.053-10.429-51.219-10.429-1.575 0-3.143 0.028-4.705 0.083-3.795-68.104-39.669-128.506-97.611-163.232-17.638-10.906-38.963-18.534-65.024-23.296l-3.61-0.461c-8.986-1.178-17.459-2.278-27.187-2.278-73.114 0-141.568 43.11-178.611 112.512-32.691 60.749-49.971 130.918-47.36 192.538 1.459 39.526 33.203 71.654 73.83 74.65l3.405 0.026c20.915 0 40.627-9.216 55.45-25.984 9.805-10.061 20.045-18.33 31.821-25.6 37.042-22.451 89.008-22.656 129.021 2.507 1.782 22.447 9.245 43.316 20.947 61.167-52.931 37.796-85.189 100.033-85.189 166.181 0 34.867 9.165 69.222 26.496 99.354 10.445 18.432 21.453 32.742 34.586 45.030 38.349 36.685 88.576 56.934 141.363 56.934h7.424c70.144-2.611 136.294-22.349 186.778-55.603 26.573-18.202 38.758-47.36 32.794-78.080-1.536-7.782-4.531-15.539-8.934-23.117-9.83-18.79-28.8-33.152-50.458-37.914-15.667-4.403-27.622-9.216-36.941-14.95-40.934-23.398-64.486-66.739-63.334-116.198 0-1.799 0-3.715-0.11-5.806 16.027-11.194 29.444-25.877 39.14-42.941 25.703 13.44 55.021 20.494 85.75 20.494 34.432 0 69.35-9.702 98.381-27.341 22.042-14.157 40.243-30.592 54.323-48.998 16.973-21.453 29.030-47.155 35.789-76.237 14.515-54.298 4.941-114.15-26.445-163.84-37.171-61.926-85.581-110.259-139.853-139.494-10.061-5.914-22.17-9.165-34.586-9.165-22.502 0-44.877 11.93-59.827 31.872-5.478 9.242-8.294 16.947-10.598 24.115-3.456 15.59-2.944 30.541 1.126 44.493 3.738 14.131 5.683 28.032 5.683 40.96 0 47.13-26.061 91.699-66.432 113.613-2.796 1.842-4.509 3.17-6.071 4.436zM603.046 299.211c44.189-26.68 73.050-78.046 73.050-132.171 0-15.155-2.227-31.258-6.63-47.846-2.944-10.138-3.302-20.736-1.101-30.976 2.227-6.63 4.429-11.827 7.219-16.614 14.208-18.816 42.112-25.318 60.544-14.541 50.637 27.29 95.667 72.371 130.611 130.586 27.725 43.93 36.198 96.435 23.398 144.256-5.965 25.779-16.41 48.077-31.13 66.714-12.416 16.205-28.416 30.643-47.693 43.008-24.806 15.053-55.014 23.45-84.813 23.45-27.158 0-52.951-6.311-75.325-18.345 4.277-12.924 6.592-26.734 6.592-41.076 0-43.794-21.605-82.645-54.723-106.444zM397.056 387.331c-46.461-23.024-101.973-20.506-143.222 4.449-13.722 8.448-25.523 17.971-37.248 30.029-10.445 11.802-22.989 17.792-36.685 17.792-29.568-2.022-50.662-23.117-51.661-50.099-2.406-57.19 13.747-122.573 44.339-179.43 32.614-61.082 92.416-98.995 156.058-98.995 8.32 0 15.718 0.998 23.859 2.048l3.021 0.41c22.195 4.045 40.627 10.573 55.629 19.84 51.256 30.724 82.721 84.365 85.462 144.791-51.94 12.287-92.019 55.582-99.553 109.166zM576.142 526.998c1.505 54.538 30.034 103.979 75.834 130.144 11.059 6.81 25.088 12.518 43.802 17.766 15.078 3.354 27.648 12.8 34.278 25.446 3.251 5.632 5.248 10.701 6.195 15.642 4.045 20.685-3.968 39.629-21.939 51.942-46.413 30.592-107.904 48.845-172.954 51.277l-6.963-0.026c-46.157 0-90.112-17.715-123.776-49.946-11.443-10.701-20.659-22.733-29.952-39.091-15.13-26.342-23.117-56.294-23.117-86.682 0-58.384 28.699-113.252 75.679-146.193 23.79 24.285 56.935 39.372 93.545 39.372 17.457 0 34.125-3.43 49.368-9.653zM526.774 511.050c-58.112 0-105.395-47.283-105.395-105.395 0-58.138 47.283-105.395 105.395-105.395s105.395 47.258 105.395 105.395c0 58.112-47.283 105.395-105.395 105.395zM413.888 663.575c-7.066 0-12.8 5.734-12.8 12.8 0 41.728 28.237 78.003 68.659 88.218 6.963 1.69 13.798-2.432 15.539-9.293 1.715-6.861-2.432-13.824-9.267-15.539-29.056-7.322-49.331-33.382-49.331-63.386 0-7.066-5.734-12.8-12.8-12.8z" />
<glyph unicode="&#x47;" glyph-name="fan_on" data-tags="fan_on" d="M396.191 416.112c1.78 22.46 9.249 43.341 20.961 61.201-52.948 37.813-85.204 100.027-85.204 166.172 0 34.867 9.165 69.222 26.496 99.354 10.445 18.406 21.453 32.742 34.586 45.005 38.374 36.685 88.602 56.96 141.363 56.96h7.424c70.144-2.611 136.32-22.374 186.778-55.603 1.279-0.877 2.525-1.78 3.737-2.707 0.298-0.164 0.592-0.341 0.881-0.531 59.648-39.45 105.6-95.462 132.915-161.997 2.662-6.528-0.461-14.003-7.014-16.691-1.562-0.666-3.226-0.973-4.838-0.973-5.018 0-9.805 2.995-11.853 7.936-18.196 44.35-45.311 83.659-79.642 115.852 0.302-6.206-0.159-12.566-1.418-18.995-1.485-7.757-4.506-15.539-8.934-23.117-4.063-7.777-9.701-14.797-16.453-20.691 16.904-18.903 31.015-40.112 42.022-63.195 3.046-6.374 0.358-14.003-6.016-17.050-1.792-0.845-3.686-1.254-5.53-1.254-4.787 0-9.344 2.688-11.546 7.296-10.662 22.306-24.48 42.657-41.182 60.617-3.797-1.512-7.729-2.727-11.754-3.611-9.626-2.739-24.755-7.45-36.915-14.95-40.96-23.398-64.486-66.739-63.334-116.198 0-1.798 0-3.716-0.112-5.811 16.026-11.194 29.443-25.877 39.14-42.939 25.689 13.442 55.009 20.498 85.741 20.498 34.406 0 69.35-9.702 98.381-27.341 22.067-14.182 40.243-30.618 54.323-49.024 16.947-21.402 29.030-47.104 35.789-76.211 14.515-54.298 4.915-114.15-26.47-163.84-37.146-61.926-85.53-110.234-139.802-139.469-10.061-5.914-22.17-9.165-34.611-9.165-2.114 0-4.226 0.105-6.33 0.311-5.312-0.235-10.608-0.35-15.893-0.35-62.746 0-124.211 16.563-179.072 48.512-6.118 3.533-8.192 11.366-4.659 17.485 3.558 6.118 11.418 8.141 17.51 4.634 41.004-23.849 85.964-38.494 132.289-43.292-1.268 1.473-2.493 2.997-3.672 4.572-5.504 9.216-8.269 16.947-10.598 24.115-2.862 12.912-2.985 25.385-0.631 37.201-25.155 4.715-49.465 12.99-72.409 24.656-6.298 3.226-8.832 10.906-5.606 17.229 3.2 6.349 10.982 8.73 17.203 5.606 21.041-10.717 43.316-18.258 66.344-22.478 1.274 7.989 1.933 15.776 1.933 23.238 0 47.104-26.086 91.674-66.432 113.587-2.774 1.814-4.516 3.165-6.087 4.439-15.741-6.714-33.054-10.432-51.216-10.432-1.579 0-3.152 0.028-4.718 0.084-3.797-68.123-39.671-128.521-97.611-163.222-17.638-10.906-38.963-18.56-65.024-23.296l-3.61-0.461c-8.96-1.178-17.434-2.278-27.162-2.278-73.088 0-141.542 43.11-178.637 112.512-32.691 60.749-49.971 130.944-47.334 192.538 0.317 8.597 2.068 16.845 5.030 24.518 0.047 0.3 0.105 0.6 0.174 0.9 16.077 69.658 52.454 132.352 105.19 181.248 5.12 4.787 13.286 4.506 18.074-0.691 4.838-5.171 4.506-13.286-0.666-18.099-36.675-33.991-64.822-75.147-82.914-120.822 8.83 4.172 18.586 6.815 28.916 7.57l3.43 0.051c12.648 0 24.839-3.371 35.771-9.731 12.149 24.239 27.851 46.436 46.846 66.135 4.941 5.069 13.056 5.222 18.099 0.333 5.094-4.915 5.248-13.030 0.333-18.099-18.593-19.283-33.71-41.201-45.001-65.259 9.666-9.823 19.746-17.896 31.249-24.964 37.038-22.397 88.945-22.63 128.981 2.472v0zM397.055 387.354c-46.403-22.987-101.907-20.535-143.208 4.423-13.67 8.422-25.472 17.971-37.248 30.054-10.445 11.802-22.963 17.792-36.685 17.792-29.594-2.048-50.637-23.117-51.635-50.099-2.458-57.19 13.696-122.573 44.314-179.43 32.64-61.082 92.416-98.995 156.058-98.995 8.32 0 15.693 0.998 23.859 2.048l3.021 0.41c22.17 4.019 40.602 10.547 55.629 19.84 51.23 30.723 82.694 84.362 85.437 144.786-51.924 12.295-92.009 55.59-99.541 109.172v0zM651.173 446.748c4.279-12.925 6.596-26.737 6.596-41.080 0-43.786-21.607-82.632-54.717-106.431 44.203-26.705 73.056-78.064 73.056-132.158 0-15.104-2.227-31.206-6.63-47.846-2.97-10.163-3.328-20.762-1.126-30.976 2.227-6.656 4.429-11.827 7.219-16.614 9.070-11.975 23.391-18.965 37.394-19.763 0.693 0.045 1.386 0.092 2.079 0.141 1.042 0.082 2.072 0.027 3.072-0.151 6.407 0.345 12.6 2.050 18.025 5.233 50.637 27.29 95.642 72.346 130.586 130.586 27.725 43.93 36.198 96.41 23.398 144.23-5.965 25.805-16.435 48.102-31.13 66.688-12.39 16.23-28.39 30.643-47.693 43.034-24.806 15.053-55.040 23.45-84.813 23.45-27.154 0-52.944-6.309-75.317-18.34v0zM433.237 497.289c23.794 24.286 56.94 39.374 93.537 39.374 17.452 0 34.119-3.431 49.362-9.655 1.482 54.537 30.012 103.955 75.838 130.12 14.541 8.986 31.974 14.464 43.802 17.792 15.078 3.354 27.622 12.8 34.253 25.446 3.277 5.606 5.248 10.675 6.195 15.59 4.045 20.736-3.942 39.654-21.914 51.968-46.438 30.592-107.904 48.845-172.954 51.277h-6.963c-46.131 0-90.086-17.741-123.776-49.946-11.443-10.701-20.634-22.733-29.952-39.117-15.13-26.317-23.117-56.269-23.117-86.656 0-58.388 28.703-113.237 75.689-146.195v0zM526.774 511.063c-58.138 0-105.395-47.283-105.395-105.395s47.258-105.395 105.395-105.395c58.138 0 105.395 47.283 105.395 105.395s-47.258 105.395-105.395 105.395zM413.901 663.588c-7.066 0-12.8 5.734-12.8 12.8 0 41.728 28.237 78.003 68.659 88.218 6.861 1.766 13.798-2.432 15.514-9.293 1.741-6.861-2.432-13.824-9.267-15.539-29.030-7.322-49.306-33.382-49.306-63.386 0-7.066-5.734-12.8-12.8-12.8z" />
<glyph unicode="&#x48;" glyph-name="flame_NA" data-tags="flame_NA" d="M531.343 25.603c-63.411 0-118.477 35.61-147.251 95.258-13.952 28.749-20.685 59.93-20.096 92.698 0.358 16.589 2.458 32.538 6.246 47.411 5.12 21.299 13.44 42.010 24.73 61.389 11.085 19.072 23.859 36.685 36.224 53.709 8.525 11.75 17.050 23.501 25.037 35.738 19.942 30.72 35.302 61.466 46.95 94.003 22.579 63.181 29.568 129.792 20.173 192.538-5.376 35.942-15.462 70.656-29.978 103.168-0.691 1.485-1.562 3.686-2.611 6.323-3.866 9.805-2.867 19.2 2.099 26.522 6.426 9.446 18.662 12.954 28.595 8.269l4.685-2.278c40.269-19.456 82.202-43.187 114.97-84.173 36.429-45.85 60.493-105.395 67.789-167.68 5.12-44.083-4.48-110.618-11.494-159.181-1.715-11.802-3.533-24.371-4.838-34.995 16.768 37.274 38.298 122.317 38.298 197.734 0 13.978 10.598 25.344 23.654 25.344 5.734 0 11.238-2.278 15.488-6.374 15.77-15.13 29.875-32.896 41.984-52.787 81.843-133.99 37.504-299.392-38.323-396.339-58.752-75.11-145.050-127.002-225.203-135.398-5.709-0.589-11.418-0.896-17.126-0.896zM514.55 817.513l0.051-0.307c0.845-2.125 1.536-3.917 2.099-5.146 15.514-34.739 26.24-71.706 31.949-109.926 10.061-66.918 2.662-137.805-21.376-204.954-12.314-34.406-28.518-66.893-49.587-99.328-8.243-12.621-16.998-24.73-25.779-36.813-11.981-16.512-24.371-33.587-34.816-51.558-10.035-17.229-17.434-35.61-21.99-54.63-3.354-13.184-5.171-27.213-5.504-41.83-0.512-28.646 5.376-55.91 17.562-81.050 26.598-55.117 80.102-86.067 138.675-80.026 73.472 7.706 153.062 55.885 207.693 125.696 70.554 90.24 112.128 243.661 36.608 367.283-9.83 16.179-21.146 30.771-33.613 43.443-1.126-82.227-32.435-237.619-73.318-237.619-4.403 0-8.602 1.562-12.16 4.48l-2.406 2.586c-5.606 8.166-4.454 20.634 3.405 75.162 6.835 47.181 16.154 111.77 11.418 152.55-6.733 57.626-28.877 112.538-62.362 154.675-27.904 34.918-62.643 56.115-106.24 77.158l-0.307 0.154zM337.114 123.988c-4.378 0-8.73 1.382-12.595 3.968-31.386 20.992-59.341 47.36-83.072 78.362-47.667 62.182-71.501 119.398-72.858 174.925-1.971 81.152 43.469 145.587 83.533 202.445l9.754 13.875c29.85 42.726 50.662 77.107 67.456 111.437 11.443 23.424 22.63 48.589 26.88 73.958 2.125 12.339 11.725 20.915 23.373 20.915 8.832 0 16.819-5.299 20.813-13.798 18.074-38.4 30.566-84.557 35.123-129.971 5.274-52.198 0.41-107.955-14.054-161.254-12.544-46.31-32.922-84.122-54.502-124.16l-7.219-13.363c-34.227-63.898-36.224-122.982-6.477-191.514 1.382-2.074 2.893-4.685 4.454-7.629 4.48-8.474 4.224-18.33-0.64-26.419-4.454-7.373-11.904-11.776-19.968-11.776zM380.301 772.436c-5.504-26.496-16.614-51.456-27.981-74.675-17.178-35.098-39.219-71.578-69.453-114.842l-9.805-13.978c-39.629-56.243-80.64-114.381-78.874-187.085 1.203-49.92 23.322-102.221 67.558-159.974 20.736-27.034 44.877-50.278 71.859-69.146-0.589 1.178-1.126 2.099-1.664 2.918l-2.022 3.661c-32.845 75.674-30.464 143.616 7.27 214.118l7.245 13.414c20.838 38.707 40.576 75.238 52.352 118.707 13.619 50.304 18.202 102.861 13.286 151.987-4.045 39.936-14.541 80.435-29.773 114.893z" />
<glyph unicode="&#x49;" glyph-name="generic_temp" data-tags="generic_temp" d="M499.2 226.040v387.861c0 7.066 5.734 12.8 12.8 12.8s12.8-5.734 12.8-12.8v-387.861c29.185-5.947 51.2-31.817 51.2-62.714 0-35.277-28.698-64-64-64s-64 28.723-64 64c0 30.897 22.015 56.767 51.2 62.714zM510.909 25.6c-75.571 0-137.011 62.669-137.011 139.725 0 36.147 12.698 70.758 34.202 93.85v482.97c0 55.654 47.898 102.656 104.576 102.656s104.576-47.002 104.576-102.656v-484.147c13.286-18.918 32.845-53.376 32.845-92.672 0-75.75-63.744-139.725-139.187-139.725zM512.676 819.2c-42.803 0-78.976-35.277-78.976-77.056v-493.67l-3.917-3.763c-18.97-18.253-30.285-47.923-30.285-79.386 0-62.925 49.971-114.125 111.411-114.125 61.568 0 113.587 52.275 113.587 114.125 0 34.509-19.021 65.536-30.362 80.973l-2.483 3.379v492.467c0 41.779-36.173 77.056-78.976 77.056zM512 201.725c-21.171 0-38.4-17.229-38.4-38.4s17.229-38.4 38.4-38.4c21.171 0 38.4 17.229 38.4 38.4s-17.229 38.4-38.4 38.4z" />
<glyph unicode="&#x4a;" glyph-name="hot_water_on" data-tags="hot_water_on" d="M558.31 688.845h-85.171c-6.15-38.248-39.404-67.535-79.34-67.535-44.288 0-80.333 36.019-80.333 80.333 0 44.288 36.045 80.333 80.333 80.333 39.932 0 73.183-29.303 79.338-67.53h20.474c9.341 34.016 40.544 59.087 77.481 59.087 36.958 0 68.165-25.072 77.506-59.087h20.464c6.155 38.227 39.406 67.53 79.338 67.53 44.288 0 80.333-36.045 80.333-80.333 0-44.314-36.045-80.333-80.333-80.333-39.936 0-73.19 29.288-79.34 67.535h-85.15v-76.193c64.192-4.82 121.103-45.517 146.46-105.043h191.232v-135.373h-191.232c-27.034-63.462-89.933-105.523-159.283-105.523-69.325 0-132.25 42.061-159.258 105.523h-174.080v-97.075h-135.347v126.771c0 62.208 60.8 105.677 147.866 105.677h161.562c25.338 59.539 82.29 100.241 146.481 105.046v76.189zM621.56 714.445c-8.311 19.659-27.796 33.487-50.467 33.487-22.652 0-42.132-13.828-50.442-33.487h100.909zM212.15 397.837h217.318l3.072-8.422c21.222-58.086 76.877-97.101 138.547-97.101 61.696 0 117.35 39.014 138.573 97.101l3.072 8.422h183.27v84.173h-183.27l-3.072 8.397c-21.222 58.086-76.877 97.126-138.573 97.126-61.67 0-117.325-39.040-138.547-97.126l-3.072-8.397h-179.2c-71.987 0-122.266-32.947-122.266-80.077v-101.171h84.147v97.075zM393.8 756.375c-30.182 0-54.733-24.55-54.733-54.733s24.55-54.733 54.733-54.733c30.208 0 54.758 24.55 54.758 54.733s-24.55 54.733-54.758 54.733zM748.401 756.375c-30.208 0-54.758-24.55-54.758-54.733s24.55-54.733 54.758-54.733c30.182 0 54.733 24.55 54.733 54.733s-24.55 54.733-54.733 54.733zM165.908 88.435c-28.006 0-50.816 22.63-50.816 50.458 0 24.090 13.67 61.952 33.229 92.058 7.731 12.186 27.725 12.083 35.379-0.205 19.379-29.952 32.973-67.789 32.973-91.853 0-27.827-22.784-50.458-50.765-50.458zM675.574 474.762c-5.478 0-10.522 3.533-12.237 9.037-10.598 34.406-41.907 58.752-77.901 60.621-7.091 0.384-12.518 6.4-12.134 13.466 0.384 7.014 5.914 12.39 13.414 12.109 46.72-2.432 87.322-34.022 101.094-78.669 2.099-6.758-1.715-13.901-8.474-16-1.229-0.384-2.509-0.563-3.763-0.563z" />
<glyph unicode="&#x4b;" glyph-name="leak_detector" data-tags="leak_detector" d="M524.8 646.874v-130.589c12.333-3.34 27.858-9.996 33.846-16.563 8.73-9.088 47.616-24.243 62.234-29.952 9.907-3.866 16.768-6.63 20.582-8.653 77.389-30.234 113.715-101.606 109.952-212.864-2.842-83.917-22.4-139.802-61.542-175.923-34.509-31.872-83.046-46.72-152.678-46.72-8.422 0-17.203 0.205-26.317 0.64-83.072-3.994-137.958 10.266-176.717 46.080-39.168 36.122-58.701 92.006-61.568 175.923-3.738 111.258 32.589 182.63 107.955 212.122l7.68-10.701-5.222 11.674c3.558 1.894 10.598 4.557 20.429 8.166 35.584 13.107 56.013 22.784 60.723 28.749 7.849 9.953 23.206 15.804 35.044 18.472v130.139c-27.28 6.373-46.438 32.319-46.438 55.846v82.842c0 32.666 26.573 59.238 59.238 59.238s59.238-26.573 59.238-59.238v-82.842c0-23.527-19.159-49.472-46.438-55.846v0zM510.851 51.799c9.907-0.384 18.278-0.589 26.342-0.589 63.667 0 105.395 12.314 135.322 39.91 33.792 31.181 50.714 81.382 53.299 157.978 3.354 99.251-27.494 162.33-91.699 187.443-2.534 0.998-3.61 1.434-4.378 1.843-3.584 1.894-9.549 4.173-17.792 7.373-28.826 11.238-60.134 24.115-72.013 36.506-3.84 3.456-22.579 10.598-27.93 10.624-6.835 0-23.731-5.376-27.75-10.47-9.6-12.16-35.712-23.578-71.987-36.915-8.32-3.072-14.31-5.197-17.664-6.963l-3.533-1.536c-65.357-25.574-96.23-88.653-92.877-187.904 2.611-76.595 19.533-126.797 53.299-157.978 33.331-30.771 82.458-42.906 159.36-39.322zM512 819.2c-18.56 0-33.638-15.078-33.638-33.638v-82.842c0-14.259 15.514-31.718 33.638-31.718s33.638 17.459 33.638 31.718v82.842c0 18.56-15.078 33.638-33.638 33.638zM512 88.927c-90.854 0-164.762 73.907-164.762 164.736 0 90.854 73.907 164.787 164.762 164.787s164.787-73.933 164.787-164.787c0-90.829-73.933-164.736-164.787-164.736zM512 392.85c-76.723 0-139.162-62.413-139.162-139.187 0-76.723 62.438-139.136 139.162-139.136 76.749 0 139.187 62.413 139.187 139.136 0 76.774-62.438 139.187-139.187 139.187z" />
<glyph unicode="&#x4c;" glyph-name="linked" data-tags="linked" d="M491.021 448h41.943v92.726c0 34.995 28.467 63.462 63.462 63.462h261.709c34.995 0 63.462-28.467 63.462-63.462v-211.072c0-34.97-28.467-63.437-63.462-63.437h-261.709c-34.995 0-63.462 28.467-63.462 63.437v92.746h-41.943v-92.746c0-34.97-28.467-63.437-63.437-63.437h-261.734c-34.995 0-63.462 28.467-63.462 63.437v211.072c0 34.995 28.467 63.462 63.462 63.462h261.734c34.97 0 63.437-28.467 63.437-63.462v-92.726zM465.421 448v92.726c0 20.89-16.973 37.862-37.837 37.862h-261.734c-20.864 0-37.862-16.973-37.862-37.862v-211.072c0-20.864 16.998-37.837 37.862-37.837h261.734c20.864 0 37.837 16.973 37.837 37.837v92.746h-126.495c-7.066 0-12.8 5.734-12.8 12.8s5.734 12.8 12.8 12.8h126.495zM558.564 422.4v-92.746c0-20.864 16.998-37.837 37.862-37.837h261.709c20.89 0 37.862 16.973 37.862 37.837v211.072c0 20.89-16.973 37.862-37.862 37.862h-261.709c-20.864 0-37.862-16.973-37.862-37.862v-92.726h126.5c7.066 0 12.8-5.734 12.8-12.8s-5.734-12.8-12.8-12.8h-126.5z" />
<glyph unicode="&#x4d;" glyph-name="long_press" data-tags="long_press" d="M460.081 555.439v-146.131c0-7.091-5.734-12.8-12.8-12.8-7.091 0-12.8 5.709-12.8 12.8v284.262c0 16.717-4.71 38.963-45.466 38.963-40.73 0-45.44-22.246-45.44-38.963v-413.696c0-7.066-5.734-12.8-12.8-12.8s-12.8 5.734-12.8 12.8v159.815c-6.76 0.857-16.438 1.629-24.891 1.629-22.656 0-38.246-18.79-41.702-50.304-0.102-0.742-5.632-41.37-6.502-93.747-1.126-67.149 10.675-95.437 37.606-133.53 37.402-52.915 116.48-114.611 117.299-115.226 5.555-4.326 6.579-12.39 2.253-17.971-2.534-3.251-6.323-4.941-10.112-4.941-2.739 0-5.53 0.87-7.859 2.688-3.354 2.611-82.867 64.64-122.496 120.653-29.645 41.958-43.546 74.906-42.291 148.787 0.896 53.99 6.451 94.746 6.707 96.435 4.89 44.774 30.643 72.755 67.098 72.755 7.306 0 16.697-0.525 24.891-1.43v228.082c0 41.037 25.907 64.563 71.040 64.563 45.158 0 71.066-23.526 71.066-64.563v-110.746c10.499 3.357 25.722 6.497 45.942 6.497 18.831 0 46.793-6.24 61.209-39.734 8.365 3.739 21.075 6.605 39.783 4.926 39.002-3.632 53.148-28.15 57.933-55.822 22.406 1.875 39.963-2.476 53.478-13.183 17.101-13.619 26.086-36.070 28.314-70.656 3.277-50.867 4.378-78.080 4.378-138.854 0-153.19-84.045-240.998-87.629-244.685-2.483-2.534-5.811-3.84-9.139-3.84-3.2 0-6.426 1.203-8.934 3.635-5.043 4.915-5.171 13.005-0.23 18.099 0.794 0.819 80.333 84.454 80.333 226.79 0 60.058-1.075 86.938-4.326 137.19-1.69 26.522-7.808 43.622-18.714 52.25-8.15 6.503-19.731 9.055-35.327 7.748 0.035-1.804 0.050-3.599 0.050-5.38v-97.331c0-7.066-5.734-12.8-12.8-12.8s-12.8 5.734-12.8 12.8v97.331c0 48.307-13.542 59.034-36.941 61.21-19.789 2.013-28.075-2.979-30.285-4.71 1.419-8.57 2.202-18.238 2.202-29.141v-98.79c0-7.066-5.734-12.8-12.8-12.8s-12.8 5.734-12.8 12.8v98.79c0 68.557-33.818 68.557-44.954 68.557-24.319 0-39.506-5.37-45.942-8.284v0zM522.624 690.424c-7.066 0-12.8 5.734-12.8 12.8 0 63.949-53.274 115.968-118.758 115.968-65.459 0-118.707-52.019-118.707-115.968 0-7.066-5.734-12.8-12.8-12.8-7.091 0-12.8 5.734-12.8 12.8 0 78.080 64.742 141.568 144.307 141.568 79.616 0 144.358-63.488 144.358-141.568 0-7.066-5.734-12.8-12.8-12.8zM696.325 624.684c-59.827 0-108.467 47.77-108.467 106.47s48.64 106.47 108.467 106.47c59.827 0 108.467-47.77 108.467-106.47s-48.64-106.47-108.467-106.47zM696.325 812.024c-45.696 0-82.867-36.275-82.867-80.87s37.171-80.87 82.867-80.87c45.696 0 82.867 36.275 82.867 80.87s-37.171 80.87-82.867 80.87zM745.001 720.125h-64.563v75.085c0 7.066 5.709 12.8 12.8 12.8 7.066 0 12.8-5.734 12.8-12.8v-49.485h38.963c7.066 0 12.8-5.734 12.8-12.8s-5.734-12.8-12.8-12.8z" />
<glyph unicode="&#x4e;" glyph-name="one_tap" data-tags="one_tap" d="M489.736 555.791v-142.884c0-7.091-5.734-12.8-12.8-12.8-7.091 0-12.8 5.709-12.8 12.8v278.4c0 16.64-4.634 38.758-44.493 38.758-39.885 0-44.493-22.118-44.493-38.758v-418.432c0-7.066-5.734-12.8-12.8-12.8s-12.8 5.734-12.8 12.8v165.141c-6.574 0.946-17.133 1.868-26.289 1.868-22.118 0-37.35-18.714-40.755-50.048-0.102-0.768-5.53-41.267-6.4-93.44-1.101-66.97 10.522-95.206 36.966-133.12 36.762-52.736 114.458-114.202 115.251-114.816 5.555-4.378 6.502-12.442 2.15-17.997-2.56-3.2-6.298-4.864-10.086-4.864-2.765 0-5.555 0.896-7.91 2.739-3.302 2.611-81.459 64.41-120.397 120.294-29.133 41.754-42.778 74.598-41.574 148.173 0.896 53.786 6.349 94.413 6.579 96.128 4.838 44.621 30.208 72.55 66.176 72.55 7.732 0 17.828-0.613 26.289-1.647v227.469c0 40.883 25.549 64.358 70.093 64.358s70.093-23.475 70.093-64.358v-108.797c10.039 2.576 24.545 4.953 43.884 4.953 28.27 0 48.948-13.551 60.396-38.46 8.828 3.079 21.581 5.388 38.93 3.767 38.852-3.67 53.074-28.694 58.014-55.339 21.106 1.596 37.677-2.624 50.446-12.765 22.042-17.485 26.445-48.973 27.853-71.117 3.226-50.637 4.301-77.747 4.301-138.368 0-152.627-82.586-240.154-86.093-243.814-2.509-2.586-5.862-3.917-9.216-3.917-3.2 0-6.4 1.203-8.858 3.584-5.094 4.864-5.274 12.954-0.384 18.099 0.768 0.819 78.95 84.198 78.95 226.048 0 59.955-1.050 86.707-4.25 136.755-1.741 27.469-7.526 44.211-18.227 52.685-7.448 5.917-18.022 8.289-32.128 7.293 0.041-1.894 0.059-3.761 0.059-5.596v-104.32c0-7.066-5.734-12.8-12.8-12.8s-12.8 5.734-12.8 12.8v104.32c0 47.821-14.259 58.778-37.274 60.954-14.255 1.344-23.561-0.687-28.943-2.699 1.789-9.384 2.706-19.733 2.706-30.985v-93.414c0-7.066-5.734-12.8-12.8-12.8s-12.8 5.734-12.8 12.8v93.414c0 45.312-15.181 68.275-45.082 68.275-22.439 0-36.878-3.676-43.884-6.073v0zM562.737 677.025c-7.066 0-12.8 5.734-12.8 12.8 0 71.347-58.496 129.382-130.381 129.382s-130.381-58.035-130.381-129.382c0-7.066-5.709-12.8-12.8-12.8-7.066 0-12.8 5.734-12.8 12.8 0 85.453 69.99 154.982 155.981 154.982 86.016 0 155.981-69.53 155.981-154.982 0-7.066-5.734-12.8-12.8-12.8z" />
<glyph unicode="&#x4f;" glyph-name="sense" data-tags="sense" d="M241.71 258.634v496.149c-0.014 0.411-0.020 0.823-0.020 1.236 0 58.291 135.987 88.781 270.31 88.781s270.31-30.49 270.31-88.781c0-0.207-0.002-0.413-0.005-0.619v-497.13c0.003-0.121 0.005-0.243 0.005-0.365 0-0.207-0.002-0.413-0.005-0.619v-41.58c0-104.832-85.274-190.106-190.106-190.106h-160.41c-104.806 0-190.080 85.274-190.080 190.106v40.963c-0.014 0.411-0.020 0.823-0.020 1.236 0 0.245 0.007 0.488 0.020 0.73zM267.31 257.248c1.598-25.728 96.579-62.524 244.69-62.524 148.744 0 243.902 37.111 244.705 62.853v458.345c-45.65-32.096-145.63-48.684-244.705-48.684-99.064 0-199.033 16.584-244.69 48.673v-458.663zM267.31 217.797v-2.091c0-90.701 73.779-164.506 164.48-164.506h160.41c90.701 0 164.506 73.805 164.506 164.506v2.102c-45.65-32.096-145.63-48.684-244.705-48.684-99.064 0-199.033 16.584-244.69 48.673zM512 819.2c-149.376 0-244.71-37.427-244.71-63.181 0-25.779 95.334-63.181 244.71-63.181s244.71 37.402 244.71 63.181c0 25.754-95.334 63.181-244.71 63.181zM512 704.812c-58.957 0-158.72 10.778-158.72 51.2s99.763 51.2 158.72 51.2c58.957 0 158.72-10.778 158.72-51.2s-99.763-51.2-158.72-51.2zM512 781.612c-80.077 0-129.306-17.101-133.222-26.291 3.917-7.808 53.146-24.909 133.222-24.909 78.106 0 126.848 16.282 132.838 25.6-5.965 9.318-54.733 25.6-132.838 25.6z" />
<glyph unicode="&#x50;" glyph-name="socket_EU" data-tags="socket_EU" d="M858.15 25.6h-692.301c-34.97 0-63.462 28.467-63.462 63.462v692.275c0 34.995 28.493 63.462 63.462 63.462h692.301c34.97 0 63.437-28.467 63.437-63.462v-692.275c0-34.995-28.467-63.462-63.437-63.462zM165.85 819.2c-20.864 0-37.862-16.973-37.862-37.862v-692.275c0-20.89 16.998-37.862 37.862-37.862h692.301c20.864 0 37.837 16.973 37.837 37.862v692.275c0 20.89-16.973 37.862-37.837 37.862h-692.301zM512 215.555c-121.114 0-219.648 98.509-219.648 219.648 0 121.114 98.534 219.648 219.648 219.648s219.648-98.534 219.648-219.648c0-121.139-98.534-219.648-219.648-219.648zM512 629.251c-107.008 0-194.048-87.040-194.048-194.048s87.040-194.048 194.048-194.048c107.008 0 194.048 87.040 194.048 194.048s-87.040 194.048-194.048 194.048zM423.35 473.201c20.966 0 37.99-17.024 37.99-37.99 0-20.992-17.024-38.016-37.99-38.016s-37.99 17.024-37.99 38.016c0 20.966 17.024 37.99 37.99 37.99zM600.65 473.201c20.966 0 37.99-17.024 37.99-37.99 0-20.992-17.024-38.016-37.99-38.016s-37.99 17.024-37.99 38.016c0 20.966 17.024 37.99 37.99 37.99z" />
<glyph unicode="&#x51;" glyph-name="socket_IN" data-tags="socket_IN" d="M875.016 25.6h-726.042c-25.677 0-46.566 20.89-46.566 46.566v726.067c0 25.677 20.89 46.566 46.566 46.566h726.042c25.677 0 46.592-20.89 46.592-46.566v-726.067c0-25.677-20.915-46.566-46.592-46.566zM148.974 819.2c-11.571 0-20.966-9.395-20.966-20.966v-726.067c0-11.571 9.395-20.966 20.966-20.966h726.042c11.571 0 20.992 9.395 20.992 20.966v726.067c0 11.571-9.421 20.966-20.992 20.966h-726.042zM512 574.5c27.981 0 50.662-22.682 50.662-50.662 0-27.955-22.682-50.637-50.662-50.637s-50.662 22.682-50.662 50.637c0 27.981 22.682 50.662 50.662 50.662zM410.701 397.199c27.981 0 50.662-22.682 50.662-50.662 0-27.955-22.682-50.637-50.662-50.637s-50.662 22.682-50.662 50.637c0 27.981 22.682 50.662 50.662 50.662zM613.325 397.199c27.981 0 50.662-22.682 50.662-50.662 0-27.955-22.682-50.637-50.662-50.637s-50.662 22.682-50.662 50.637c0 27.981 22.682 50.662 50.662 50.662z" />
<glyph unicode="&#x52;" glyph-name="socket_NA" data-tags="socket_NA" d="M875.016 25.6h-726.042c-25.677 0-46.566 20.89-46.566 46.566v726.067c0 25.677 20.89 46.566 46.566 46.566h726.042c25.677 0 46.592-20.89 46.592-46.566v-726.067c0-25.677-20.915-46.566-46.592-46.566zM148.974 819.2c-11.571 0-20.966-9.395-20.966-20.966v-726.067c0-11.571 9.395-20.966 20.966-20.966h726.042c11.571 0 20.992 9.395 20.992 20.966v726.067c0 11.571-9.421 20.966-20.992 20.966h-726.042zM642.033 215.549h-261.53l-53.35 108.083c-46.464 73.37-46.464 173.568 0.64 248.090l53.683 83.123h259.738l56.192-88.704c45.517-72.090 45.517-168.909 0-240.998l-55.373-109.594zM396.401 241.149h229.862l48.896 96.589c40.96 64.973 40.96 150.835 0.589 214.733l-48.64 76.774h-231.68l-46.054-71.296c-41.882-66.253-41.882-155.443 0.077-221.824l46.95-94.976zM410.701 540.301c7.040 0 12.8-4.736 12.8-10.573v-95.027c0-5.862-5.76-10.573-12.8-10.573-7.066 0-12.8 4.71-12.8 10.573v95.027c0 5.837 5.734 10.573 12.8 10.573zM613.325 540.301c7.040 0 12.8-4.736 12.8-10.573v-95.027c0-5.862-5.76-10.573-12.8-10.573-7.066 0-12.8 4.71-12.8 10.573v95.027c0 5.837 5.734 10.573 12.8 10.573zM512 404.25c7.066 0 12.8-4.736 12.8-10.547v-52.813c0-5.837-5.734-10.573-12.8-10.573s-12.8 4.736-12.8 10.573v52.813c0 5.811 5.734 10.547 12.8 10.547z" />
<glyph unicode="&#x53;" glyph-name="socket_UK" data-tags="socket_UK" d="M148.974 819.2c-11.571 0-20.966-9.395-20.966-20.966v-726.067c0-11.571 9.395-20.966 20.966-20.966h726.042c11.571 0 20.992 9.395 20.992 20.966v726.067c0 11.571-9.421 20.966-20.992 20.966h-726.042zM875.016 25.6h-726.042c-25.677 0-46.566 20.89-46.566 46.566v726.067c0 25.677 20.89 46.566 46.566 46.566h726.042c25.677 0 46.592-20.89 46.592-46.566v-726.067c0-25.677-20.915-46.566-46.592-46.566zM512 549.174c-6.989 0-25.318-5.683-25.318-12.672v-88.627c0-6.989 18.33-12.672 25.318-12.672s25.318 5.683 25.318 12.672v88.627c0 6.989-18.33 12.672-25.318 12.672zM461.35 346.55c0 6.989-4.403 25.318-9.856 25.318h-68.941c-5.453 0-9.856-18.33-9.856-25.318s4.403-25.318 9.856-25.318h68.941c5.453 0 9.856 18.33 9.856 25.318zM651.3 346.55c0 6.989-4.403 25.318-9.856 25.318h-68.941c-5.427 0-9.856-18.33-9.856-25.318s4.429-25.318 9.856-25.318h68.941c5.453 0 9.856 18.33 9.856 25.318z" />
<glyph unicode="&#x54;" glyph-name="switch" data-tags="switch" d="M824.369 25.6h-624.742c-53.606 0-97.229 43.622-97.229 97.229v624.742c0 53.606 43.622 97.229 97.229 97.229h624.742c53.606 0 97.229-43.622 97.229-97.229v-624.742c0-53.606-43.622-97.229-97.229-97.229zM199.626 819.2c-39.501 0-71.629-32.128-71.629-71.629v-624.742c0-39.501 32.128-71.629 71.629-71.629h624.742c39.501 0 71.629 32.128 71.629 71.629v624.742c0 39.501-32.128 71.629-71.629 71.629h-624.742zM587.986 202.898h-151.962c-44.288 0-80.358 36.045-80.358 80.333v303.923c0 44.314 36.070 80.358 80.358 80.358h151.962c44.288 0 80.333-36.045 80.333-80.358v-303.923c0-44.288-36.045-80.333-80.333-80.333zM436.024 641.912c-30.208 0-54.758-24.55-54.758-54.758v-303.923c0-30.182 24.55-54.733 54.758-54.733h151.962c30.182 0 54.733 24.55 54.733 54.733v303.923c0 30.208-24.55 54.758-54.733 54.758h-151.962zM512 764.462c13.978 0 25.318-11.341 25.318-25.318 0-14.003-11.341-25.344-25.318-25.344-14.003 0-25.318 11.341-25.318 25.344 0 13.978 11.315 25.318 25.318 25.318zM512 156.6c13.978 0 25.318-11.341 25.318-25.344 0-13.978-11.341-25.318-25.318-25.318-14.003 0-25.318 11.341-25.318 25.318 0 14.003 11.315 25.344 25.318 25.344z" />
<glyph unicode="&#x55;" glyph-name="tanks" data-tags="tanks" d="M145.164 617.646c30.376 14.632 71.346 28.176 108.334 28.176 28.39 0 75.008-9.728 106.112-22.144 19.866-6.605 47.181-14.49 75.853-14.49 22.195 0 54.912 5.606 77.798 13.312l8.96 2.867c33.126 10.163 71.142 20.454 104.090 20.454 26.368 0 47.898-5.862 73.293-13.542l8.73-2.842c35.251-12.749 71.219-20.25 96.64-20.25 21.248 0 42.112 6.144 63.386 12.979l13.784 4.444 14.128 66.332c1.485 6.938 8.218 11.29 15.181 9.856 6.912-1.485 11.341-8.269 9.882-15.181l-110.822-520.294h-587.392l-120.397 520.064c-1.587 6.886 2.714 13.773 9.6 15.36 6.912 1.587 13.747-2.688 15.36-9.574l17.482-75.528zM151.1 592l92.371-399.076h546.304l86.217 404.807c-23.227-7.449-46.13-14.144-71.019-14.144-40.678 0-86.938 15.13-104.96 21.632l-8.090 2.662c-23.066 6.938-42.752 12.339-65.613 12.339-29.542 0-65.28-9.728-96.307-19.226l-8.858-2.867c-25.318-8.525-60.672-14.541-85.683-14.541-32.333 0-62.234 8.576-84.659 16.051-28.749 11.469-72.115 20.582-97.306 20.582-34.812 0-75.261-14.449-102.398-28.221z" />
<glyph unicode="&#x56;" glyph-name="toilets" data-tags="toilets" d="M780.7 751.462v7.232c0 14.259-11.622 25.882-25.882 25.882h-485.632c-14.285 0-25.882-11.622-25.882-25.882v-7.232h537.395zM780.7 725.862h-537.395v-327.693c0-14.259 11.597-25.856 25.882-25.856h485.632c14.259 0 25.882 11.597 25.882 25.856v327.693zM580.662 346.714v-27.515c0-6.765-2.634-12.919-6.927-17.497v-111.724c0-40.73 8.602-40.73 17.69-40.73 9.114 0 17.715 0 17.715 40.73v9.805c0 80.717 38.144 119.936 116.608 119.936h33.894c9.958 0 21.581-6.605 21.581-25.216v-73.677c0-17.946-11.136-24.346-21.581-24.346h-27.238v-6.502c0-98.33-56.653-164.378-140.979-164.378-84.301 0-140.928 66.048-140.928 164.378v111.46c-4.441 4.604-7.178 10.866-7.178 17.761v27.515h-174.131c-28.39 0-51.482 23.091-51.482 51.456v360.525c0 28.39 23.091 51.482 51.482 51.482h193.477v10.808c0 11.802 12.314 23.808 24.397 23.808h52.992c12.749 0 21.274-12.314 21.274-23.808v-10.808h193.492c28.39 0 51.482-23.091 51.482-51.482v-360.525c0-28.365-23.091-51.456-51.482-51.456h-174.157zM555.062 346.714h-86.144v-27.515h86.144v27.515zM535.726 810.176v9.016h-48.666l0.558-9.016h48.107zM476.096 293.599v-103.621c0-84.301 45.261-138.778 115.328-138.778 70.093 0 115.379 54.477 115.379 138.778v9.805c-0.333 4.378-0.845 11.059 4.275 16.589 3.482 3.789 8.422 5.709 14.669 5.709h29.696l0.179 72.038h-29.875c-63.795 0-91.008-28.211-91.008-94.336v-9.805c0-34.458-5.248-66.33-43.315-66.33-38.042 0-43.29 31.872-43.29 66.33v103.621h-72.038z" />
<glyph unicode="&#x57;" glyph-name="water_not_flowing" data-tags="water_not_flowing" d="M562.476 581.692c37.839-11.885 76.286-20.993 114.848-20.993 57.242 0 114.278 20.070 169.626 39.552 21.427 7.552 43.597 15.36 65.485 21.811 6.784 2.022 10.65 9.139 8.627 15.923-1.997 6.758-9.062 10.598-15.898 8.627-22.502-6.656-44.979-14.566-66.918-22.298-53.12-18.688-108.058-38.016-160.922-38.016-35.602 0-72.118 8.764-108.389 20.204l31.451 120.817c1.766 6.861-2.33 13.824-9.165 15.616-6.861 1.869-13.85-2.33-15.616-9.165l-31.034-119.232c-9.483 3.24-18.93 6.569-28.322 9.879-55.194 19.456-112.282 39.578-169.574 39.578-57.37 0-114.509-20.122-170.573-39.859-21.171-7.424-43.034-15.13-64.538-21.504-6.784-2.022-10.65-9.165-8.627-15.923 1.997-6.758 9.114-10.624 15.898-8.627 22.016 6.528 44.262 14.336 66.586 22.195 53.222 18.739 108.262 38.118 161.254 38.118 52.915 0 107.904-19.379 161.075-38.118 10.060-3.546 20.182-7.114 30.356-10.579l-37.841-145.387c-50.198 17.526-101.81 33.961-153.59 33.961-57.37 0-114.509-20.122-169.754-39.578-21.376-7.552-43.52-15.334-65.357-21.786-6.784-1.997-10.65-9.139-8.627-15.898 1.997-6.81 9.114-10.624 15.898-8.653 22.477 6.63 44.902 14.541 66.586 22.195 53.222 18.739 108.262 38.118 161.254 38.118 48.299 0 98.326-16.146 147.121-33.213l-38.039-146.145c-35.984 11-72.491 19.207-109.083 19.207-57.37 0-114.509-20.122-170.573-39.859-21.171-7.424-43.034-15.13-64.538-21.504-6.784-2.022-10.65-9.165-8.627-15.923 1.997-6.758 9.114-10.547 15.898-8.627 22.016 6.528 44.262 14.336 66.586 22.195 53.222 18.739 108.262 38.118 161.254 38.118 33.703 0 68.247-7.861 102.626-18.412l-34.105-131.033c-1.792-6.861 2.304-13.824 9.165-15.59 1.075-0.307 2.15-0.435 3.226-0.435 5.683 0 10.88 3.814 12.365 9.574l33.739 129.604c11.411-3.843 22.776-7.849 34.060-11.826 55.194-19.456 112.256-39.578 169.574-39.578 57.242 0 114.278 20.070 170.394 39.834 21.274 7.475 43.238 15.206 64.717 21.53 6.758 2.022 10.65 9.139 8.627 15.923-1.971 6.733-9.011 10.624-15.898 8.627-22.067-6.502-44.365-14.336-66.918-22.298-53.12-18.688-108.058-38.016-160.922-38.016-52.941 0-107.904 19.379-161.075 38.118-11.949 4.212-23.986 8.455-36.095 12.518l37.87 145.475c51.987-18.254 105.531-35.96 159.3-35.96 57.318 0 114.406 20.096 169.626 39.526 20.224 7.142 43.136 15.232 65.485 21.837 6.784 2.022 10.65 9.139 8.627 15.923-1.997 6.784-9.062 10.624-15.898 8.627-22.989-6.784-46.208-15.002-66.714-22.246-53.197-18.714-108.186-38.067-161.126-38.067-50.209 0-102.237 17.431-152.83 35.215l37.981 145.901z" />
<glyph unicode="&#x61;" glyph-name="hiveActiveCamera" data-tags="hiveActiveCamera" d="M854 861.867h-686c-10.667 0-20-4.33-28-12.99s-12-18.319-12-28.977v-685.464c0-11.991 4-21.65 12-28.977s17.333-10.991 28-10.991h184c1.333-25.314 11-45.964 29-61.952s39.667-23.981 65-23.981h130c25.333 0 47 7.994 65 23.981s27.667 36.638 29 61.952h184c28 0 42 13.323 42 39.969v685.464c0 10.658-4 20.317-12 28.977s-18 12.99-30 12.99v0zM576 30.516h-128c-18.667 0-35 5.995-49 17.986s-22.333 27.312-25 45.964h276c-2.667-18.652-11-33.973-25-45.964s-30.333-17.986-49-17.986v0zM874 134.435c0-11.991-6.667-17.986-20-17.986h-686c-12 0-18 5.995-18 17.986v685.464c0 13.323 6 19.984 18 19.984h686c13.333 0 20-6.661 20-19.984v-685.464zM512 588.081c-30.667 0-57-10.991-79-32.974s-33-48.295-33-78.938c0-30.643 11-56.955 33-78.938s48.333-32.974 79-32.974c30.667 0 57 10.991 79 32.974s33 48.295 33 78.938c0 30.643-11 56.955-33 78.938s-48.333 32.974-79 32.974v0zM512 386.238c-25.333 0-46.667 8.66-64 25.98s-26 38.636-26 63.95c0 25.314 8.667 46.63 26 63.95s38.667 25.98 64 25.98c25.333 0 46.667-8.66 64-25.98s26-38.636 26-63.95c0-25.314-8.667-46.63-26-63.95s-38.667-25.98-64-25.98v0zM512 668.018c-53.334 0-99-18.652-137-55.956s-57-82.602-57-135.894c0-53.292 19-98.923 57-136.893s83.666-56.956 137-56.956c53.334 0 99 18.985 137 56.956s57 83.601 57 136.893c0 53.292-19 98.589-57 135.894s-83.666 55.956-137 55.956v0zM512 306.301c-46.667 0-87 16.653-121 49.961s-51 73.276-51 119.906c0 47.963 17 88.597 51 121.905s74.333 49.961 121 49.961c46.667 0 87-16.653 121-49.961s51-73.942 51-121.905c0-46.63-17-86.599-51-119.906s-74.333-49.961-121-49.961v0z" />
<glyph unicode="&#x62;" glyph-name="nano_3" data-tags="nano_3" d="M858.15 25.6h-692.301c-34.97 0-63.462 28.467-63.462 63.462v692.275c0 34.995 28.493 63.462 63.462 63.462h692.301c34.97 0 63.437-28.467 63.437-63.462v-692.275c0-34.995-28.467-63.462-63.437-63.462zM165.85 819.2c-20.864 0-37.862-16.973-37.862-37.862v-692.275c0-20.89 16.998-37.862 37.862-37.862h692.301c20.864 0 37.837 16.973 37.837 37.862v692.275c0 20.89-16.973 37.862-37.837 37.862h-692.301zM753.349 740.536c33.587 0 64-25.779 64-65.331v-468.301c0-61.696-29.005-77.030-64-77.030h-159.411c-36.941 0-53.683 8.397-74.88 19.046-14.080 7.066-30.029 15.078-56.755 23.603-66.406 21.197-114.637 24.883-115.098 24.909l-75.213-0.026c-32.358 0-65.331 34.33-65.331 68.045v409.677c0 35.994 29.44 65.408 65.408 65.408h481.28zM753.349 714.936h-481.28c-21.939 0-39.808-17.843-39.808-39.808v-409.677c0-19.43 21.53-42.445 39.731-42.445l76.826-0.026c0.486-0.026 51.43-3.789 121.267-26.061 28.595-9.139 46.208-17.971 60.39-25.088 20.352-10.214 32.563-16.358 63.462-16.358h159.411c20.992 0 38.4 3.84 38.4 51.43v468.301c0 25.805-19.789 39.731-38.4 39.731zM692.101 665.964c27.981 0 50.662-22.682 50.662-50.662 0-27.955-22.682-50.662-50.662-50.662s-50.662 22.707-50.662 50.662c0 27.981 22.682 50.662 50.662 50.662zM692.101 530.888c27.981 0 50.662-22.682 50.662-50.662s-22.682-50.662-50.662-50.662c-27.981 0-50.662 22.682-50.662 50.662s22.682 50.662 50.662 50.662zM692.101 395.799c27.981 0 50.662-22.682 50.662-50.662 0-27.955-22.682-50.662-50.662-50.662s-50.662 22.707-50.662 50.662c0 27.981 22.682 50.662 50.662 50.662z" />
<glyph unicode="&#x63;" glyph-name="receiver_single" data-tags="receiver_single" d="M858.125 25.6h-692.275c-34.995 0-63.462 28.467-63.462 63.462v692.275c0 34.995 28.467 63.462 63.462 63.462h692.275c34.995 0 63.462-28.467 63.462-63.462v-692.275c0-34.995-28.467-63.462-63.462-63.462zM165.85 819.2c-20.864 0-37.862-16.973-37.862-37.862v-692.275c0-20.89 16.998-37.862 37.862-37.862h692.275c20.89 0 37.862 16.973 37.862 37.862v692.275c0 20.89-16.973 37.862-37.862 37.862h-692.275zM756.826 126.912h-489.677c-34.995 0-63.462 28.467-63.462 63.462v489.651c0 34.995 28.467 63.462 63.462 63.462h489.677c34.995 0 63.437-28.467 63.437-63.462v-489.651c0-34.995-28.442-63.462-63.437-63.462zM267.149 717.888c-20.864 0-37.862-16.973-37.862-37.862v-489.651c0-20.89 16.998-37.862 37.862-37.862h489.677c20.864 0 37.837 16.973 37.837 37.862v489.651c0 20.89-16.973 37.862-37.837 37.862h-489.677zM689.275 463.337c27.981 0 50.662-22.682 50.662-50.662 0-27.955-22.682-50.662-50.662-50.662s-50.662 22.707-50.662 50.662c0 27.981 22.682 50.662 50.662 50.662zM689.275 311.375c27.981 0 50.662-22.682 50.662-50.662 0-27.955-22.682-50.662-50.662-50.662s-50.662 22.707-50.662 50.662c0 27.981 22.682 50.662 50.662 50.662zM689.275 661.737c20.992 0 37.99-16.998 37.99-37.99s-16.998-37.99-37.99-37.99c-20.966 0-37.99 16.998-37.99 37.99s17.024 37.99 37.99 37.99z" />
<glyph unicode="&#x64;" glyph-name="receiver_dual" data-tags="receiver_dual" d="M858.15 25.6h-692.301c-34.97 0-63.462 28.467-63.462 63.462v692.275c0 34.995 28.493 63.462 63.462 63.462h692.301c34.97 0 63.437-28.467 63.437-63.462v-692.275c0-34.995-28.467-63.462-63.437-63.462zM165.85 819.2c-20.864 0-37.862-16.973-37.862-37.862v-692.275c0-20.89 16.998-37.862 37.862-37.862h692.301c20.864 0 37.837 16.973 37.837 37.862v692.275c0 20.89-16.973 37.862-37.837 37.862h-692.301zM756.851 126.912h-489.677c-34.97 0-63.462 28.467-63.462 63.462v489.651c0 34.995 28.493 63.462 63.462 63.462h489.677c34.97 0 63.437-28.467 63.437-63.462v-489.651c0-34.995-28.467-63.462-63.437-63.462zM267.174 717.888c-20.864 0-37.862-16.973-37.862-37.862v-489.651c0-20.89 16.998-37.862 37.862-37.862h489.677c20.864 0 37.837 16.973 37.837 37.862v489.651c0 20.89-16.973 37.862-37.837 37.862h-489.677zM689.3 442.237c20.966 0 37.99-17.024 37.99-37.99 0-20.992-17.024-37.99-37.99-37.99s-37.99 16.998-37.99 37.99c0 20.966 17.024 37.99 37.99 37.99zM689.3 302.948c27.981 0 50.662-22.707 50.662-50.662 0-27.981-22.682-50.662-50.662-50.662s-50.662 22.682-50.662 50.662c0 27.955 22.682 50.662 50.662 50.662zM689.3 653.309c20.966 0 37.99-17.024 37.99-37.99 0-20.992-17.024-38.016-37.99-38.016s-37.99 17.024-37.99 38.016c0 20.966 17.024 37.99 37.99 37.99zM537.326 442.237c20.992 0 37.99-17.024 37.99-37.99 0-20.992-16.998-37.99-37.99-37.99-20.966 0-37.965 16.998-37.965 37.99 0 20.966 16.998 37.99 37.965 37.99zM537.326 302.948c27.981 0 50.662-22.707 50.662-50.662 0-27.981-22.682-50.662-50.662-50.662s-50.662 22.682-50.662 50.662c0 27.955 22.682 50.662 50.662 50.662z" />
<glyph unicode="&#x65;" glyph-name="humidity" data-tags="humidity" d="M512 25.6c-150.938 0-275.61 122.675-277.862 273.51-0.026 1.664 0 3.379 0.077 5.094l1.51 30.131c3.84 54.63 19.533 107.392 46.592 157.133l174.797 320.717c11.136 20.403 31.667 32.614 54.938 32.614 23.219 0 43.75-12.186 54.912-32.563l174.694-320.23c27.11-50.355 42.778-103.27 46.592-157.389l0.051-4.096c0.998-7.142 1.587-17.306 1.587-27.034 0-153.216-124.672-277.888-277.888-277.888zM512.051 819.2c-13.747 0-25.882-7.194-32.461-19.277l-174.771-320.691c-25.318-46.49-39.962-95.77-43.546-146.432l-1.536-33.28c2.048-136.934 115.226-248.32 252.262-248.32 139.11 0 252.288 113.178 252.288 252.288 0 8.499-0.512 17.485-1.51 25.446l-0.077 4.787c-3.558 49.562-18.202 99.021-43.546 146.074l-174.669 320.154c-6.579 12.058-18.714 19.251-32.435 19.251zM405.151 343.045c-36.25 0-65.715 29.466-65.715 65.715 0 36.224 29.466 65.69 65.715 65.69 36.224 0 65.69-29.466 65.69-65.69 0-36.25-29.466-65.715-65.69-65.715zM405.151 448.85c-22.118 0-40.115-17.997-40.115-40.090 0-22.118 17.997-40.115 40.115-40.115s40.090 17.997 40.090 40.115c0 22.093-17.971 40.090-40.090 40.090zM616.776 164.483c-36.25 0-65.715 29.466-65.715 65.715 0 36.224 29.466 65.69 65.715 65.69 36.224 0 65.69-29.466 65.69-65.69 0-36.25-29.466-65.715-65.69-65.715zM616.776 270.287c-22.118 0-40.115-17.997-40.115-40.090 0-22.118 17.997-40.115 40.115-40.115s40.090 17.997 40.090 40.115c0 22.093-17.971 40.090-40.090 40.090zM386.637 179.039c-3.277 0-6.554 1.254-9.062 3.738-4.992 5.018-4.992 13.107 0 18.125l261.888 261.862c4.992 4.992 13.107 4.992 18.099 0s4.992-13.107 0-18.099l-261.862-261.888c-2.509-2.483-5.786-3.738-9.062-3.738z" />
<glyph unicode="&#x66;" glyph-name="device_stat" data-tags="device_stat" d="M921.597 628.68h0.010v-382.72h-0.010v-33.951c0-34.432-27.981-62.413-62.387-62.413h-55.68c-61.21 0-122.829-4.685-183.168-13.978l-4.301-0.717c-61.926-9.498-124.826-14.31-187.136-14.31-11.93 0-23.885 0.179-35.789 0.512-42.624 1.254-85.504 4.736-127.462 10.368-21.171 2.842-42.266 6.221-63.258 10.163-4.941 0.922-10.368 1.69-16.077 2.509-6.605 0.922-13.517 1.92-20.403 3.2-36.813 6.886-63.539 39.245-63.539 76.877v434.176c0 16.538 6.477 32.205 18.202 44.083 10.522 10.368 25.651 18.099 41.651 21.35 78.49 17.459 165.811 25.984 266.675 25.984 62.31 0 125.21-4.813 186.957-14.285l4.634-0.768c60.186-9.267 121.805-13.952 183.014-13.952h55.68c34.406 0 62.387-28.006 62.387-62.413v-29.716zM895.997 628.68v29.716c0 20.301-16.512 36.813-36.787 36.813h-55.68c-62.515 0-125.44 4.787-187.085 14.259l-4.634 0.794c-60.262 9.242-121.882 13.952-182.886 13.952-98.995 0-184.474-8.32-261.35-25.446-11.494-2.304-21.939-7.552-28.877-14.387-6.861-6.963-10.701-16.205-10.701-25.984v-38.94c1.247 0.468 2.515 0.849 3.799 1.134 92.672 20.122 187.264 30.31 281.165 30.31 54.298 0 156.595-7.629 198.067-10.931l3.456-0.282c67.712-10.163 136.192-11.008 206.234-11.008h75.279zM895.997 245.96h-75.279c-81.229 0-146.586-4.122-205.747-13.030-24.422-2.355-143.334-13.542-203.571-13.542-93.952 0-185.37 9.907-279.475 30.31-1.329 0.297-2.64 0.695-3.927 1.185v-26.662c0-25.344 17.92-47.078 42.624-51.712 6.528-1.229 13.056-2.15 19.328-3.021 6.067-0.87 11.904-1.69 17.178-2.688 20.557-3.866 41.216-7.168 61.952-9.958 41.088-5.504 83.072-8.934 124.8-10.138 72.55-2.074 146.074 2.432 218.112 13.466l4.275 0.742c61.824 9.498 124.749 14.285 187.264 14.285h55.68c20.275 0 36.787 16.512 36.787 36.813v33.951zM412.961 625.3c-92.109 0-184.858-9.984-275.686-29.696-3.43-0.768-9.267-8.013-9.267-14.771v-291.251c0-6.81 5.888-14.080 9.421-14.874 92.211-20.019 181.862-29.722 273.971-29.722 60.314 0 185.805 11.93 199.936 13.312 60.288 9.037 126.874 13.261 209.382 13.261h75.29v331.52h-75.29c-70.938 0-140.365 0.87-209.715 11.213-0.461 0.051-1.152 0.102-1.997 0.154-41.165 3.277-142.669 10.854-196.045 10.854zM435.663 378.284h-194.176c-21.018 0-38.118 17.101-38.118 38.118v138.906c0 21.018 17.101 38.118 38.118 38.118h194.176c21.043 0 38.144-17.101 38.144-38.118v-138.906c0-21.018-17.101-38.118-38.144-38.118zM241.487 567.826c-6.912 0-12.518-5.606-12.518-12.518v-138.906c0-6.912 5.606-12.518 12.518-12.518h194.176c6.912 0 12.544 5.606 12.544 12.518v138.906c0 6.912-5.632 12.518-12.544 12.518h-194.176zM544.788 561.413c6.451 0 11.674-5.222 11.674-11.674v-51.379c0-2.125-1.715-3.84-3.84-3.84h-17.92c-2.125 0-3.84 1.715-3.84 3.84v50.381c0 6.963 5.709 12.672 12.672 12.672h1.254zM551.35 469.299c2.816 0 5.12-2.278 5.12-5.12v-44.954c0-7.654-6.272-13.926-13.926-13.926-6.451 0-11.674 5.222-11.674 11.674v47.206c0 2.842 2.278 5.12 5.094 5.12h15.386zM311.849 336.187c4.71 0 8.525-3.814 8.525-8.525v-8.55c0-4.71-3.814-8.525-8.525-8.525h-55.475c-4.71 0-8.525 3.814-8.525 8.525v8.55c0 4.71 3.814 8.525 8.525 8.525h55.475zM425.687 336.187c4.71 0 8.525-3.814 8.525-8.525v-8.55c0-4.71-3.814-8.525-8.525-8.525h-55.475c-4.71 0-8.525 3.814-8.525 8.525v8.55c0 4.71 3.814 8.525 8.525 8.525h55.475z" />
<glyph unicode="&#x67;" glyph-name="stat_3" data-tags="stat_3" d="M858.125 25.6h-692.275c-34.995 0-63.462 28.467-63.462 63.462v692.275c0 34.995 28.467 63.462 63.462 63.462h692.275c34.995 0 63.462-28.467 63.462-63.462v-692.275c0-34.995-28.467-63.462-63.462-63.462zM165.85 819.2c-20.864 0-37.862-16.973-37.862-37.862v-692.275c0-20.89 16.998-37.862 37.862-37.862h692.275c20.89 0 37.862 16.973 37.862 37.862v692.275c0 20.89-16.973 37.862-37.862 37.862h-692.275zM511.987 295.757c-95.488 0-173.21 77.696-173.21 173.21s77.722 173.21 173.21 173.21c95.514 0 173.21-77.696 173.21-173.21s-77.696-173.21-173.21-173.21zM511.987 616.576c-81.382 0-147.61-66.202-147.61-147.61 0-81.382 66.227-147.61 147.61-147.61 81.408 0 147.61 66.227 147.61 147.61 0 81.408-66.202 147.61-147.61 147.61zM790.6 173.476c0-27.981-22.682-50.662-50.662-50.662s-50.662 22.682-50.662 50.662c0 27.981 22.682 50.662 50.662 50.662s50.662-22.682 50.662-50.662zM562.65 173.476c0-27.981-22.682-50.662-50.662-50.662s-50.662 22.682-50.662 50.662c0 27.981 22.682 50.662 50.662 50.662s50.662-22.682 50.662-50.662zM334.7 173.476c0-27.981-22.682-50.662-50.662-50.662s-50.662 22.682-50.662 50.662c0 27.981 22.682 50.662 50.662 50.662s50.662-22.682 50.662-50.662z" />
<glyph unicode="&#x68;" glyph-name="signal_boost" data-tags="signal_boost" d="M858.15 25.6h-692.301c-34.97 0-63.462 28.467-63.462 63.462v692.275c0 34.995 28.493 63.462 63.462 63.462h692.301c34.97 0 63.437-28.467 63.437-63.462v-692.275c0-34.995-28.467-63.462-63.437-63.462zM165.85 819.2c-20.864 0-37.862-16.973-37.862-37.862v-692.275c0-20.89 16.998-37.862 37.862-37.862h692.301c20.864 0 37.837 16.973 37.837 37.862v692.275c0 20.89-16.973 37.862-37.837 37.862h-692.301zM689.3 313.249c27.981 0 50.662-22.682 50.662-50.662 0-27.955-22.682-50.662-50.662-50.662s-50.662 22.707-50.662 50.662c0 27.981 22.682 50.662 50.662 50.662z" />
<glyph unicode="&#x69;" glyph-name="plug_NA" data-tags="plug_NA" d="M600.471 25.6h-176.947c-72.218 0-130.995 58.778-130.995 130.995v557.21c0 72.218 58.778 130.995 130.995 130.995h176.947c72.218 0 130.995-58.778 130.995-130.995v-557.21c0-72.218-58.778-130.995-130.995-130.995zM423.524 819.2c-58.112 0-105.395-47.283-105.395-105.395v-557.21c0-58.112 47.283-105.395 105.395-105.395h176.947c58.112 0 105.395 47.283 105.395 105.395v557.21c0 58.112-47.283 105.395-105.395 105.395h-176.947zM376.924 660.675c-0.205 0-0.41 0-0.589 0.026-7.066 0.307-12.544 6.298-12.211 13.338 2.074 45.696 33.818 85.274 77.184 96.256 6.835 1.792 13.798-2.381 15.565-9.242 1.741-6.861-2.406-13.824-9.267-15.565-32.538-8.243-56.346-38.118-57.907-72.576-0.307-6.886-5.965-12.237-12.774-12.237zM410.688 344c7.066 0 12.8-4.736 12.8-10.547v-95.053c0-5.837-5.734-10.547-12.8-10.547s-12.8 4.71-12.8 10.547v95.053c0 5.811 5.734 10.547 12.8 10.547zM613.312 344c7.066 0 12.8-4.736 12.8-10.547v-95.053c0-5.837-5.734-10.547-12.8-10.547s-12.8 4.71-12.8 10.547v95.053c0 5.811 5.734 10.547 12.8 10.547zM512 207.949c7.066 0 12.8-4.71 12.8-10.547v-52.813c0-5.811-5.734-10.547-12.8-10.547s-12.8 4.736-12.8 10.547v52.813c0 5.837 5.734 10.547 12.8 10.547z" />
<glyph unicode="&#x6a;" glyph-name="water_flowing" data-tags="water_flowing" d="M677.338 569.275c-57.318 0-114.381 20.122-169.6 39.578-53.171 18.739-108.16 38.118-161.075 38.118-52.966 0-108.006-19.379-161.229-38.118-22.502-7.91-44.646-15.667-66.586-22.195-6.784-1.946-13.901 1.869-15.898 8.627-2.022 6.758 1.843 13.901 8.627 15.923 21.427 6.349 43.187 14.029 64.307 21.427 56.294 19.814 113.434 39.936 170.778 39.936 57.318 0 114.381-20.122 169.574-39.578 53.197-18.739 108.186-38.118 161.101-38.118 52.864 0 107.776 19.328 160.87 38.016 22.451 7.91 44.826 15.795 66.97 22.298 6.912 1.946 13.926-1.894 15.898-8.627 2.022-6.784-1.869-13.901-8.627-15.923-21.555-6.349-43.622-14.106-64.947-21.606-55.936-19.686-112.922-39.757-170.163-39.757zM677.338 383.549c-57.318 0-114.381 20.122-169.6 39.578-53.171 18.739-108.16 38.118-161.075 38.118-52.966 0-108.006-19.379-161.229-38.118-21.709-7.654-44.186-15.59-66.586-22.195-6.784-1.92-13.901 1.869-15.898 8.653-2.022 6.758 1.843 13.901 8.627 15.898 21.76 6.426 43.93 14.234 65.331 21.786 55.27 19.456 112.41 39.578 169.754 39.578 57.318 0 114.381-20.122 169.574-39.578 53.197-18.739 108.186-38.118 161.101-38.118 52.992 0 107.955 19.379 161.101 38.093 20.71 7.27 44.134 15.539 66.739 22.221 6.81 1.971 13.901-1.869 15.898-8.627 2.022-6.784-1.843-13.901-8.627-15.923-21.965-6.477-45.107-14.643-65.51-21.811-55.168-19.456-112.23-39.552-169.6-39.552zM677.338 197.824c-57.318 0-114.381 20.122-169.6 39.578-53.171 18.739-108.16 38.118-161.075 38.118-53.043 0-108.058-19.405-161.229-38.144-22.502-7.91-44.646-15.667-66.586-22.195-6.784-1.971-13.901 1.869-15.898 8.627-2.022 6.758 1.843 13.901 8.627 15.923 21.427 6.349 43.187 14.029 64.307 21.427 56.243 19.84 113.357 39.962 170.778 39.962 57.318 0 114.381-20.122 169.574-39.578 53.197-18.739 108.186-38.118 161.101-38.118s107.904 19.354 161.075 38.067c22.246 7.834 44.621 15.718 66.765 22.246 6.81 1.997 13.901-1.869 15.898-8.627 2.022-6.784-1.843-13.901-8.627-15.923-21.53-6.374-43.597-14.131-64.922-21.632-55.808-19.635-112.896-39.731-170.189-39.731z" />
<glyph unicode="&#x6b;" glyph-name="stat_2" data-tags="stat_2" d="M895.995 245.376v436.242c0 34.842-28.339 63.181-63.181 63.181h-641.638c-34.816 0-63.181-28.339-63.181-63.181v-436.242h768zM895.995 219.776h-768v-30.984c0-34.842 28.365-63.181 63.181-63.181h641.638c34.842 0 63.181 28.339 63.181 63.181v30.984zM832.814 100.012h-641.638c-48.947 0-88.781 39.808-88.781 88.781v492.826c0 48.947 39.834 88.781 88.781 88.781h641.638c48.973 0 88.781-39.834 88.781-88.781v-492.826c0-48.973-39.808-88.781-88.781-88.781zM503.539 361.531h-236.365c-48.973 0-88.806 39.834-88.806 88.781v155.494c0 48.947 39.834 88.781 88.806 88.781h236.365c48.973 0 88.806-39.834 88.806-88.781v-155.494c0-48.947-39.834-88.781-88.806-88.781zM267.174 668.987c-34.842 0-63.206-28.339-63.206-63.181v-155.494c0-34.816 28.365-63.181 63.206-63.181h236.365c34.867 0 63.206 28.365 63.206 63.181v155.494c0 34.842-28.339 63.181-63.206 63.181h-236.365zM788.275 506.962c-20.966 0-37.965 17.024-37.965 37.99 0 20.992 16.998 37.99 37.965 37.99s37.99-16.998 37.99-37.99c0-20.966-17.024-37.99-37.99-37.99zM788.275 397.212c-20.966 0-37.965 16.998-37.965 37.99s16.998 37.99 37.965 37.99c20.966 0 37.99-16.998 37.99-37.99s-17.024-37.99-37.99-37.99zM788.275 616.712c-20.966 0-37.965 17.024-37.965 37.99 0 20.992 16.998 37.99 37.965 37.99s37.99-16.998 37.99-37.99c0-20.966-17.024-37.99-37.99-37.99z" />
<glyph unicode="&#x6c;" glyph-name="plug_UK" data-tags="plug_UK" d="M600.471 25.6h-176.947c-72.243 0-130.995 58.752-130.995 130.995v557.21c0 72.243 58.752 130.995 130.995 130.995h176.947c72.218 0 130.995-58.752 130.995-130.995v-557.21c0-72.243-58.778-130.995-130.995-130.995zM423.631 819.2c-58.127 0-105.423-47.283-105.423-105.395v-557.21c0-58.112 47.296-105.395 105.423-105.395h176.994c58.127 0 105.423 47.283 105.423 105.395v557.21c0 58.112-47.296 105.395-105.423 105.395h-176.994zM442.749 203.026c0-7.066-3.123-12.8-6.963-12.8h-62.848c-3.866 0-6.989 5.734-6.989 12.8s3.123 12.8 6.989 12.8h62.848c3.84 0 6.963-5.734 6.963-12.8zM658.038 203.026c0-7.066-3.123-12.8-6.963-12.8h-62.848c-3.866 0-6.989 5.734-6.989 12.8s3.123 12.8 6.989 12.8h62.848c3.84 0 6.963-5.734 6.963-12.8zM518.326 401.349c7.066 0 12.8-5.734 12.8-12.8v-76.8c0-7.066-5.734-12.8-12.8-12.8s-12.8 5.734-12.8 12.8v76.8c0 7.066 5.734 12.8 12.8 12.8zM376.924 660.687h-0.589c-7.066 0.333-12.544 6.323-12.211 13.389 2.074 45.645 33.818 85.222 77.184 96.23 6.758 1.818 13.798-2.381 15.539-9.242s-2.406-13.824-9.242-15.565c-32.538-8.269-56.346-38.118-57.907-72.602-0.307-6.861-5.965-12.211-12.774-12.211z" />
<glyph unicode="&#x6d;" glyph-name="action_button" data-tags="action_button" d="M522.314 335.231v138.147c0 7.066 5.734 12.8 12.8 12.8 7.091 0 12.8-5.734 12.8-12.8v-270.387c0-17.152 4.915-36.89 43.136-36.89s43.136 19.738 43.136 36.89v228.982c-0.856 2.446-0.978 5.171-0.189 7.841 0.059 0.199 0.122 0.396 0.189 0.591v169.678c0 7.066 5.709 12.8 12.8 12.8 7.066 0 12.8-5.734 12.8-12.8v-163.171c6.215-0.681 14.18-1.235 21.263-1.235 21.504 0 36.326 17.894 39.629 47.846 0.102 0.742 5.427 39.706 6.246 89.933 1.075 64.358-10.24 91.469-36.070 127.923-35.942 50.714-111.974 109.926-112.742 110.49-5.581 4.326-6.605 12.39-2.278 17.971 4.352 5.581 12.339 6.579 17.971 2.278 3.226-2.509 79.77-62.080 117.939-115.942 28.57-40.346 41.984-72.038 40.781-143.155-0.845-51.866-6.221-91.008-6.451-92.646-4.762-43.213-29.696-70.298-65.024-70.298-6.242 0-14.062 0.405-21.263 1.102v-218.188c0-39.706-25.062-62.49-68.736-62.49s-68.736 22.784-68.736 62.49v105.253c-10.193-2.903-25.080-5.669-44.79-5.669-21.314 0-45.473 7.655-58.167 37.708-7.082-2.62-16.571-4.758-28.683-4.758-3.251 0-6.682 0.154-10.291 0.486-37.066 3.426-50.433 26.353-54.881 53.76-4.015-0.401-7.872-0.597-11.576-0.597-17.28 0-31.258 4.378-42.368 13.235-16.563 13.158-25.267 34.816-27.418 68.147-3.149 48.794-4.198 74.906-4.198 133.35 0 147.302 80.998 231.706 84.454 235.238 4.966 5.069 13.056 5.12 18.074 0.205 5.043-4.915 5.146-13.030 0.23-18.099-0.742-0.768-77.158-80.947-77.158-217.344 0-57.728 1.024-83.507 4.147-131.712 1.638-25.242 7.45-41.523 17.818-49.741 8.112-6.472 19.933-8.782 35.999-7.12-0.021 1.472-0.031 2.944-0.031 4.414v103.322c0 7.091 5.734 12.8 12.8 12.8s12.8-5.709 12.8-12.8v-103.322c0-46.618 11.341-56.192 33.664-58.24 14.799-1.445 24.404 1.151 29.807 3.54-1.338 8.373-2.066 17.809-2.066 28.431v92.314c0 7.091 5.709 12.8 12.8 12.8 7.066 0 12.8-5.709 12.8-12.8v-92.314c0-57.882 22.144-65.306 41.446-65.306 23.199 0 38.148 4.488 44.79 7.057v0zM495.232 87.757v25.6h179.2v-25.6h-179.2zM405.453 38.016v25.6h371.2v-25.6h-371.2z" />
<glyph unicode="&#x6e;" glyph-name="link_broken" data-tags="link_broken" d="M586.166 479.063l-20.747 9.672c-6.426 2.97-9.19 10.598-6.195 16.998 2.995 6.426 10.65 9.139 16.998 6.195l20.756-9.676 31.66 67.901c5.683 12.211 15.795 21.453 28.467 26.061 12.595 4.608 26.317 4.045 38.528-1.664l196.838-91.802c25.216-11.75 36.147-41.805 24.397-66.995l-74.138-159.027c-8.55-18.304-26.778-29.082-45.747-29.082-7.142 0-14.387 1.51-21.222 4.71l-196.915 91.827c-25.139 11.75-36.096 41.779-24.346 66.97l31.665 67.911zM609.371 468.245l-31.676-67.922c-5.76-12.39-0.384-27.162 12.006-32.947h-0.026l196.864-91.802c12.518-5.811 27.238-0.41 32.998 11.981l74.138 159.027c2.79 5.99 3.098 12.723 0.819 18.944-2.278 6.246-6.81 11.213-12.826 14.003l-196.864 91.802c-6.042 2.816-12.749 3.123-18.944 0.845-6.246-2.278-11.213-6.835-14.003-12.826l-31.673-67.916 46.918-21.873c6.426-2.995 9.19-10.598 6.195-16.998-2.176-4.659-6.784-7.398-11.597-7.398-1.818 0-3.661 0.384-5.402 1.203l-46.929 21.878zM427.021 502.249l20.757 9.679c6.323 2.944 14.003 0.23 16.998-6.195 2.995-6.4 0.23-14.029-6.195-16.998l-20.746-9.674 31.674-67.919c5.683-12.211 6.298-25.882 1.69-38.528s-13.875-22.758-26.061-28.442l-196.89-91.802c-6.835-3.2-14.106-4.71-21.222-4.71-18.97 0-37.197 10.778-45.747 29.082l-74.163 159.002c-11.75 25.216-0.794 55.27 24.422 66.995l196.864 91.802c12.211 5.709 25.907 6.246 38.528 1.69 12.646-4.608 22.733-13.875 28.416-26.061l31.675-67.919zM403.817 491.428l-31.665 67.911c-2.79 6.016-7.782 10.573-13.978 12.826-2.765 0.998-5.658 1.51-8.499 1.51-3.584 0-7.117-0.794-10.47-2.33l-196.89-91.802c-5.99-2.816-10.547-7.782-12.826-14.003-2.253-6.221-1.971-12.954 0.845-18.97l74.138-159.002c5.786-12.39 20.506-17.792 32.973-12.006l196.89 91.802c5.99 2.816 10.547 7.782 12.8 14.003 2.278 6.221 1.971 12.954-0.845 18.97l-31.66 67.901-46.904-21.872c-1.741-0.819-3.584-1.203-5.402-1.203-4.813 0-9.421 2.739-11.597 7.398-2.995 6.4-0.23 14.003 6.195 16.998l46.894 21.868zM488.051 322.775c-1.101 0-2.202 0.128-3.328 0.435-6.81 1.818-10.88 8.858-9.037 15.667l73.523 274.406c1.843 6.81 8.781 10.829 15.693 9.037 6.835-1.818 10.88-8.858 9.037-15.667l-73.523-274.381c-1.536-5.734-6.707-9.498-12.365-9.498z" />
<glyph unicode="&#x6f;" glyph-name="plug_EU" data-tags="plug_EU" d="M600.471 25.6h-176.947c-72.218 0-130.995 58.778-130.995 130.995v557.21c0 72.218 58.778 130.995 130.995 130.995h176.947c72.218 0 130.995-58.778 130.995-130.995v-557.21c0-72.218-58.778-130.995-130.995-130.995zM423.524 819.2c-58.138 0-105.395-47.283-105.395-105.395v-557.21c0-58.112 47.258-105.395 105.395-105.395h176.947c58.138 0 105.395 47.283 105.395 105.395v557.21c0 58.112-47.258 105.395-105.395 105.395h-176.947zM450.968 263.575c14.133 0 25.591-11.454 25.591-25.6s-11.458-25.6-25.591-25.6c-14.15 0-25.609 11.454-25.609 25.6s11.458 25.6 25.609 25.6zM573.877 263.575c14.15 0 25.609-11.454 25.609-25.6s-11.458-25.6-25.609-25.6c-14.133 0-25.591 11.454-25.591 25.6s11.458 25.6 25.591 25.6zM376.924 660.675c-0.179 0-0.384 0-0.563 0.026-7.091 0.307-12.544 6.298-12.211 13.338 2.048 45.696 33.766 85.274 77.158 96.256 6.886 1.843 13.798-2.406 15.539-9.242 1.741-6.861-2.406-13.824-9.242-15.565-32.538-8.269-56.32-38.118-57.907-72.576-0.307-6.886-5.939-12.237-12.774-12.237zM512 89.6c-84.831 0-153.6 68.769-153.6 153.6s68.769 153.6 153.6 153.6c84.831 0 153.6-68.769 153.6-153.6s-68.769-153.6-153.6-153.6zM512 115.2c70.692 0 128 57.308 128 128s-57.308 128-128 128c-70.692 0-128-57.308-128-128s57.308-128 128-128z" />
<glyph unicode="&#x70;" glyph-name="button_off" data-tags="button_off" d="M807.501 25.6h-591.002c-62.925 0-114.099 51.2-114.099 114.125v590.95c0 62.925 51.174 114.125 114.099 114.125h591.002c62.925 0 114.099-51.2 114.099-114.125v-590.95c0-62.925-51.174-114.125-114.099-114.125zM216.499 819.2c-48.794 0-88.499-39.706-88.499-88.525v-590.95c0-48.819 39.706-88.525 88.499-88.525h591.002c48.794 0 88.499 39.706 88.499 88.525v590.95c0 48.819-39.706 88.525-88.499 88.525h-591.002zM512 126.912c-170.010 0-308.301 138.291-308.301 308.301 0 169.984 138.291 308.275 308.301 308.275s308.301-138.291 308.301-308.275c0-170.010-138.291-308.301-308.301-308.301zM512 717.888c-155.878 0-282.701-126.822-282.701-282.675 0-155.878 126.822-282.701 282.701-282.701s282.701 126.822 282.701 282.701c0 155.853-126.822 282.675-282.701 282.675z" />
<glyph unicode="&#x71;" glyph-name="motion_sensor" data-tags="motion_sensor" d="M512 502.6c-37.171 0-67.405-30.234-67.405-67.405 0-37.146 30.234-67.405 67.405-67.405s67.405 30.259 67.405 67.405c0 37.171-30.234 67.405-67.405 67.405zM512 342.19c-51.277 0-93.005 41.728-93.005 93.005s41.728 93.005 93.005 93.005c51.277 0 93.005-41.728 93.005-93.005s-41.728-93.005-93.005-93.005zM360.038 230.413c-2.79 0-5.581 0.896-7.936 2.765-62.106 49.229-97.741 122.88-97.741 202.035 0 79.13 35.61 152.755 97.69 201.984 5.53 4.403 13.568 3.456 17.997-2.074 4.378-5.555 3.456-13.594-2.074-17.997-55.936-44.339-88.013-110.643-88.013-181.914 0-71.296 32.077-137.626 88.038-181.965 5.53-4.403 6.477-12.442 2.099-17.997-2.56-3.174-6.298-4.838-10.061-4.838zM250.25 124.175c-2.995 0-6.016 1.050-8.448 3.2-88.602 77.798-139.392 190.003-139.392 307.814 0 117.837 50.816 230.067 139.418 307.891 5.35 4.659 13.414 4.147 18.074-1.178 4.685-5.299 4.147-13.389-1.152-18.048-83.098-72.96-130.739-178.176-130.739-288.666 0-110.464 47.616-215.654 130.688-288.614 5.325-4.659 5.837-12.749 1.152-18.048-2.509-2.867-6.042-4.352-9.6-4.352zM664 230.438c-3.763 0-7.501 1.664-10.035 4.838-4.403 5.555-3.456 13.594 2.074 17.997 55.936 44.339 87.987 110.643 87.987 181.939 0 71.27-32.077 137.6-88.013 181.939-5.555 4.403-6.477 12.442-2.099 17.997 4.403 5.504 12.467 6.451 17.997 2.074 62.106-49.229 97.715-122.88 97.715-202.010 0-79.155-35.61-152.781-97.69-202.010-2.355-1.869-5.146-2.765-7.936-2.765zM773.711 124.137c-3.558 0-7.091 1.485-9.6 4.352-4.685 5.299-4.173 13.389 1.152 18.048 83.098 72.986 130.739 178.176 130.739 288.666 0 110.464-47.642 215.654-130.714 288.614-5.299 4.659-5.837 12.749-1.152 18.048 4.659 5.299 12.749 5.837 18.074 1.178 88.576-77.824 139.392-190.029 139.392-307.84 0-117.837-50.816-230.067-139.443-307.866-2.432-2.15-5.453-3.2-8.448-3.2z" />
<glyph unicode="&#x72;" glyph-name="hub_nano" data-tags="hub_nano" d="M858.15 25.6h-692.301c-34.995 0-63.462 28.467-63.462 63.462v692.275c0 34.995 28.467 63.462 63.462 63.462h692.301c34.995 0 63.437-28.467 63.437-63.462v-692.275c0-34.995-28.442-63.462-63.437-63.462zM165.85 819.2c-20.864 0-37.862-16.973-37.862-37.862v-692.275c0-20.89 16.998-37.862 37.862-37.862h692.301c20.864 0 37.837 16.973 37.837 37.862v692.275c0 20.89-16.973 37.862-37.837 37.862h-692.301zM725.512 701c28.877 0 52.275-23.424 52.275-52.275v-427.034c0-28.877-23.398-52.301-52.275-52.301h-427.034c-28.877 0-52.275 23.424-52.275 52.301v427.034c0 28.851 23.398 52.275 52.275 52.275h427.034zM725.512 675.4h-427.034c-14.72 0-26.675-11.955-26.675-26.675v-427.034c0-14.72 11.955-26.701 26.675-26.701h427.034c14.72 0 26.675 11.981 26.675 26.701v427.034c0 14.72-11.955 26.675-26.675 26.675zM538.15 435.2c0-14.438-11.725-26.138-26.138-26.138-14.438 0-26.163 11.699-26.163 26.138s11.725 26.138 26.163 26.138c14.413 0 26.138-11.699 26.138-26.138zM451.013 354.186c-3.046 0-6.093 1.075-8.525 3.251-22.118 19.763-34.79 48.102-34.79 77.773 0 29.619 12.672 57.958 34.765 77.722 5.299 4.736 13.363 4.275 18.074-0.998s4.275-13.363-0.998-18.074c-16.691-14.925-26.24-36.301-26.24-58.65 0-22.374 9.574-43.75 26.24-58.675 5.274-4.71 5.734-12.8 1.024-18.074-2.534-2.842-6.042-4.275-9.549-4.275zM416.113 315.238c-3.046 0-6.093 1.075-8.525 3.251-33.178 29.696-52.198 72.243-52.198 116.71 0 44.493 19.046 87.040 52.198 116.71 5.299 4.736 13.363 4.275 18.099-0.998 4.71-5.274 4.25-13.363-1.024-18.074-27.75-24.832-43.674-60.416-43.674-97.638 0-37.197 15.923-72.781 43.648-97.613 5.274-4.736 5.734-12.826 1.024-18.074-2.534-2.842-6.042-4.275-9.549-4.275zM573 354.199c-3.507 0-7.014 1.434-9.549 4.275-4.71 5.274-4.25 13.338 1.024 18.074 16.666 14.925 26.24 36.301 26.24 58.65 0 22.374-9.574 43.75-26.24 58.675-5.299 4.71-5.734 12.8-1.024 18.074s12.8 5.709 18.074 0.998c22.093-19.763 34.79-48.102 34.79-77.747s-12.672-57.984-34.79-77.747c-2.432-2.176-5.478-3.251-8.525-3.251zM607.862 315.226c-3.507 0-7.014 1.434-9.549 4.275-4.71 5.274-4.25 13.338 1.024 18.074 27.75 24.832 43.674 60.416 43.674 97.638 0 37.197-15.923 72.781-43.674 97.613-5.248 4.71-5.709 12.8-0.998 18.074 4.736 5.274 12.851 5.709 18.074 0.998 33.178-29.696 52.198-72.218 52.198-116.685 0-44.493-19.046-87.040-52.224-116.736-2.432-2.176-5.478-3.251-8.525-3.251z" />
<glyph unicode="&#x73;" glyph-name="door_sensor_closed" data-tags="door_sensor_closed" d="M756.692 338.253v426.214c0 30.182-24.55 54.733-54.733 54.733h-59.11c-30.182 0-54.733-24.55-54.733-54.733v-426.214h168.576zM756.692 312.653h-168.576v-206.694c0-30.208 24.55-54.758 54.733-54.758h59.11c30.182 0 54.733 24.55 54.733 54.758v206.694zM486.531 338.253v426.214c0 30.182-24.55 54.733-54.733 54.733h-109.747c-30.208 0-54.758-24.55-54.758-54.733v-426.214h219.238zM486.531 312.653h-219.238v-206.694c0-30.208 24.55-54.758 54.758-54.758h109.747c30.182 0 54.733 24.55 54.733 54.758v206.694zM431.798 25.6h-109.747c-44.288 0-80.358 36.045-80.358 80.358v658.509c0 44.288 36.070 80.333 80.358 80.333h109.747c44.314 0 80.333-36.045 80.333-80.333v-658.509c0-44.314-36.019-80.358-80.333-80.358zM701.96 25.6h-59.11c-44.288 0-80.333 36.045-80.333 80.358v658.509c0 44.288 36.045 80.333 80.333 80.333h59.11c44.288 0 80.333-36.045 80.333-80.333v-658.509c0-44.314-36.045-80.358-80.333-80.358z" />
<glyph unicode="&#x75;" glyph-name="light" data-tags="light" d="M599.974 121.421l0.266 0.207c2.611 2.022 4.352 4.992 4.787 8.115l1.459 11.827c3.789 30.746 11.674 94.746 26.726 142.822 14.848 47.36 27.443 75.802 36.659 96.563 10.496 23.706 15.77 35.635 15.77 55.014 0 8.781-1.28 10.803-1.331 10.88-1.843 1.024-11.366 0.896-18.995 0.998h-303.13c-22.963 0-22.963-5.325-22.963-12.749 0-19.712 5.171-31.616 15.437-55.347 8.858-20.429 20.966-48.384 35.558-94.976 15.053-48 22.63-109.824 26.701-143.027l1.51-12.032c0.446-3.285 2.268-6.333 4.953-8.297h176.591zM595.274 95.821h-165.094v-11.671c0-17.869 16.461-32.947 35.942-32.947h91.213c20.557 0 37.939 16 37.939 34.944v9.674zM691.105 494.157h-358.81c-8.448 0-28.262 0-37.171 17.536-16 31.59-23.194 76.954-23.194 107.904 0 124.186 107.571 225.203 239.77 225.203 222.669 0 239.078-196.582 239.718-206.054 3.226-41.574-6.298-93.798-23.117-127.002-8.934-17.587-28.749-17.587-37.197-17.587zM511.7 819.2c-118.093 0-214.17-89.549-214.17-199.603 0-33.024 8.397-72.627 20.429-96.333 0.845-1.69 2.765-3.507 14.336-3.507h358.81c11.571 0 13.491 1.843 14.362 3.558 14.694 28.979 23.296 76.698 20.429 113.485l-0.026 0.333c-0.384 7.45-11.878 182.067-214.17 182.067zM557.335 25.603h-91.213c-33.382 0-61.542 26.803-61.542 58.547v19.686c-6.221 5.939-10.394 13.952-11.52 22.502l-1.536 12.288c-3.712 30.106-11.366 92.723-25.728 138.496-14.208 45.312-26.010 72.576-34.611 92.442-10.957 25.267-17.562 40.525-17.562 65.536 0 38.349 36.557 38.349 48.563 38.349h303.078c16.64-0.102 28.57 0.051 37.222-8.602 7.731-7.706 8.755-18.918 8.755-28.877 0-24.806-7.142-40.934-17.971-65.382-8.96-20.198-21.222-47.872-35.61-93.85-14.387-45.85-22.067-108.288-25.754-138.291l-1.51-12.083c-0.998-7.552-4.403-14.694-9.523-20.378v-19.84c0-32.819-29.107-60.544-63.539-60.544zM639.662 635.725c-7.066 0-12.8 5.734-12.8 12.8 0 34.458-31.078 64.614-75.597 73.37-6.938 1.357-11.443 8.090-10.086 15.027s8.090 11.469 15.027 10.086c56.678-11.136 96.256-51.635 96.256-98.483 0-7.066-5.734-12.8-12.8-12.8z" />
<glyph unicode="&#x76;" glyph-name="camera_WLC" data-tags="camera_WLC" d="M882.426 46.936c1.572-4.968 0.72-10.398-2.292-14.616-3.012-4.22-7.817-6.72-12.947-6.72h-710.377c-5.119 0-9.933 2.5-12.947 6.72-3.012 4.218-3.862 9.648-2.29 14.616 22.718 71.72 64.552 134.663 121.417 182.907-0.214 0.21-0.428 0.42-0.644 0.632-66.683 67.968-103.414 158.343-103.414 254.459 0 96.126 36.73 186.493 103.414 254.469 66.685 67.968 155.343 105.397 249.653 105.397 94.307 0 182.967-37.43 249.651-105.397 66.693-67.97 103.414-158.343 103.414-254.469 0-96.116-36.728-186.491-103.414-254.459-0.214-0.212-0.428-0.422-0.636-0.632 56.859-48.244 98.693-111.187 121.411-182.907zM190.957 484.934c0-180.427 144.023-327.216 321.043-327.216 177.028 0 321.041 146.789 321.041 327.224 0 180.429-144.022 327.218-321.041 327.218s-321.043-146.789-321.043-327.226zM179.521 58.242h664.956c-22.481 58.374-59.249 109.537-107.415 149.405-63.173-53.462-141.922-82.57-225.062-82.57-83.133 0-161.881 29.108-225.056 82.57-48.172-39.868-84.934-91.032-107.423-149.405zM512 675.333c103 0 186.799-85.414 186.799-190.399 0-104.975-83.8-190.389-186.799-190.389s-186.794 85.414-186.794 190.389c0 104.985 83.794 190.399 186.794 190.399zM512 327.185c85.348 0 154.776 70.766 154.776 157.749 0 86.994-69.429 157.757-154.776 157.757-85.34 0-154.776-70.764-154.776-157.757 0-86.984 69.436-157.749 154.776-157.749zM512 575.855c49.184 0 89.204-40.788 89.204-90.922 0-50.132-40.019-90.922-89.204-90.922s-89.204 40.79-89.204 90.922c0 50.134 40.017 90.922 89.204 90.922zM512 426.654c31.533 0 57.186 26.148 57.186 58.28 0 32.142-25.654 58.29-57.186 58.29-31.527 0-57.18-26.148-57.18-58.29 0-32.132 25.646-58.28 57.18-58.28zM429.443 761.23c3.049-8.462-1.205-17.836-9.505-20.954-10.455-3.914-20.78-8.554-30.683-13.796-2.361-1.25-4.874-1.836-7.366-1.836-5.787 0-11.375 3.202-14.218 8.804-4.077 8-1.012 17.844 6.836 22 11.092 5.876 22.665 11.078 34.378 15.47 8.308 3.1 17.507-1.236 20.558-9.688zM617.337 770.074c8.279-3.18 12.456-12.594 9.336-21.024-2.414-6.54-8.508-10.57-14.985-10.57-1.878 0-3.777 0.336-5.641 1.046-30.014 11.532-61.654 17.376-94.046 17.376-8.539 0-17.146-0.414-25.593-1.234-8.8-0.868-16.618 5.726-17.454 14.702-0.836 8.97 5.62 16.938 14.426 17.79 9.45 0.914 19.077 1.374 28.621 1.374 36.254 0 71.697-6.546 105.337-19.46z" />
<glyph unicode="&#x77;" glyph-name="camera_off" data-tags="camera_off" d="M858.15 25.6h-692.301c-34.97 0-63.462 28.467-63.462 63.462v692.275c0 34.995 28.493 63.462 63.462 63.462h692.301c34.97 0 63.437-28.467 63.437-63.462v-692.275c0-34.995-28.467-63.462-63.437-63.462zM165.85 819.2c-20.864 0-37.862-16.973-37.862-37.862v-692.275c0-20.89 16.998-37.862 37.862-37.862h692.301c20.864 0 37.837 16.973 37.837 37.862v692.275c0 20.89-16.973 37.862-37.837 37.862h-692.301zM198.799 617.4c-7.066 0-12.8 5.734-12.8 12.8v92.851c0 21.043 17.101 38.144 38.118 38.144h92.877c7.091 0 12.8-5.734 12.8-12.8 0-7.091-5.709-12.8-12.8-12.8h-92.877c-6.886 0-12.518-5.632-12.518-12.544v-92.851c0-7.066-5.734-12.8-12.8-12.8zM799.875 109.199h-92.877c-7.066 0-12.8 5.734-12.8 12.8s5.734 12.8 12.8 12.8h92.877c6.912 0 12.518 5.632 12.518 12.518v92.877c0 7.091 5.734 12.8 12.8 12.8 7.091 0 12.8-5.709 12.8-12.8v-92.877c0-21.018-17.101-38.118-38.118-38.118zM512 211.318c-123.443 0-223.872 100.429-223.872 223.872s100.429 223.872 223.872 223.872c123.443 0 223.872-100.429 223.872-223.872s-100.429-223.872-223.872-223.872zM512 633.462c-109.338 0-198.272-88.934-198.272-198.272 0-109.312 88.934-198.272 198.272-198.272s198.272 88.96 198.272 198.272c0 109.338-88.934 198.272-198.272 198.272zM512 291.553c-79.206 0-143.642 64.435-143.642 143.642s64.435 143.667 143.642 143.667c79.206 0 143.642-64.461 143.642-143.667s-64.435-143.642-143.642-143.642zM512 553.262c-65.101 0-118.042-52.966-118.042-118.067s52.941-118.042 118.042-118.042c65.101 0 118.042 52.941 118.042 118.042s-52.941 118.067-118.042 118.067zM439.224 418.737c-7.066 0-12.8 5.734-12.8 12.8 0 41.754 28.237 78.029 68.659 88.218 6.861 1.741 13.798-2.406 15.514-9.267 1.741-6.861-2.432-13.824-9.267-15.539-29.030-7.347-49.306-33.408-49.306-63.411 0-7.066-5.734-12.8-12.8-12.8z" />
<glyph unicode="&#x78;" glyph-name="colour_picker" data-tags="colour_picker" d="M492.759 24.415c-51.635 0-109.056 21.222-136.576 32.819-165.478 69.734-266.573 235.955-251.597 413.619 13.85 164.403 130.125 307.174 289.306 355.277 185.523 55.987 393.344-23.706 483.456-185.395 49.024-87.936 72.474-225.434-22.733-323.584-63.309-65.331-142.182-70.733-224.179-70.733-42.88 0-63.642-11.776-71.603-40.653-5.043-18.33 3.43-33.152 13.235-50.278 11.315-19.814 24.166-42.24 15.283-71.936-6.733-22.605-20.634-39.014-41.318-48.768-15.744-7.424-34.099-10.368-53.274-10.368zM515.876 818.424c-38.298 0-76.902-5.427-114.586-16.794-149.222-45.107-258.227-178.893-271.206-332.928-14.029-166.579 80.819-322.458 236.058-387.866 55.501-23.424 129.101-41.728 168.96-22.912 14.029 6.63 23.091 17.408 27.725 32.922 5.734 19.2-2.944 34.381-12.979 51.917-11.034 19.302-23.552 41.216-15.693 69.811 14.72 53.299 62.003 59.443 96.282 59.443 79.206 0 149.376 4.736 205.824 62.925 85.402 88.115 63.488 213.069 18.739 293.325-66.176 118.707-200.32 190.157-339.123 190.157zM292.475 443.51c-46.643 0-84.582 37.939-84.582 84.557 0 46.643 37.939 84.582 84.582 84.582 46.618 0 84.557-37.939 84.557-84.582 0-46.618-37.939-84.557-84.557-84.557zM292.475 587.049c-32.538 0-58.982-26.445-58.982-58.982 0-32.512 26.445-58.957 58.982-58.957 32.512 0 58.957 26.445 58.957 58.957 0 32.538-26.445 58.982-58.957 58.982zM723.1 460.411c-46.643 0-84.582 37.939-84.582 84.557 0 46.643 37.939 84.582 84.582 84.582s84.582-37.939 84.582-84.582c0-46.618-37.939-84.557-84.582-84.557zM723.1 603.95c-32.538 0-58.982-26.445-58.982-58.982 0-32.512 26.445-58.957 58.982-58.957s58.982 26.445 58.982 58.957c0 32.538-26.445 58.982-58.982 58.982zM503.562 570.186c-46.643 0-84.582 37.914-84.582 84.531 0 46.643 37.939 84.582 84.582 84.582s84.582-37.939 84.582-84.582c0-46.618-37.939-84.531-84.582-84.531zM503.562 713.7c-32.538 0-58.982-26.445-58.982-58.982 0-32.486 26.445-58.931 58.982-58.931s58.982 26.445 58.982 58.931c0 32.538-26.445 58.982-58.982 58.982zM343.137 215.537c-46.643 0-84.582 37.939-84.582 84.557 0 46.643 37.939 84.582 84.582 84.582 46.618 0 84.557-37.939 84.557-84.582 0-46.618-37.939-84.557-84.557-84.557zM343.137 359.076c-32.538 0-58.982-26.445-58.982-58.982 0-32.512 26.445-58.957 58.982-58.957 32.512 0 58.957 26.445 58.957 58.957 0 32.538-26.445 58.982-58.957 58.982z" />
<glyph unicode="&#x79;" glyph-name="cooling" data-tags="cooling" d="M724.748 312.291l-189.245 122.905 189.265 122.91 123.368-72.502c2.048-1.203 4.275-1.766 6.477-1.766 4.378 0 8.653 2.253 11.059 6.323 3.558 6.093 1.536 13.926-4.557 17.51l-112.354 66.017 103.003 66.891c5.914 3.84 7.603 11.776 3.763 17.715s-11.776 7.629-17.715 3.763l-102.987-66.885-14.622 129.479c-0.768 7.014-7.142 12.032-14.157 11.29-7.014-0.794-12.058-7.142-11.29-14.157l16.037-142.219-185.993-120.792v221.799l128.013 63.994c6.323 3.149 8.883 10.854 5.709 17.178s-10.854 8.883-17.178 5.709l-116.544-58.272v122.82c0 7.066-5.734 12.8-12.8 12.8s-12.8-5.734-12.8-12.8v-122.82l-116.544 58.272c-6.323 3.174-14.029 0.614-17.178-5.709-3.174-6.323-0.614-14.029 5.709-17.178l128.013-63.994v-221.799l-185.993 120.792 16.037 142.219c0.768 7.014-4.275 13.363-11.29 14.157-7.117 0.742-13.389-4.275-14.157-11.29l-14.622-129.479-102.987 66.885c-5.939 3.866-13.875 2.176-17.715-3.763s-2.15-13.875 3.763-17.715l103.003-66.891-112.354-66.017c-6.093-3.584-8.115-11.418-4.557-17.51 2.406-4.070 6.682-6.323 11.059-6.323 2.202 0 4.429 0.563 6.477 1.766l123.368 72.502 189.265-122.91-189.245-122.905-123.403 72.485c-6.067 3.61-13.926 1.562-17.51-4.557-3.584-6.067-1.536-13.926 4.557-17.485l112.356-66.031-103.014-66.903c-5.914-3.84-7.603-11.776-3.763-17.69 2.458-3.789 6.554-5.837 10.752-5.837 2.381 0 4.787 0.666 6.963 2.074l102.99 66.882 14.599-129.49c0.742-6.554 6.298-11.366 12.723-11.366 0.486 0 0.973 0.026 1.459 0.077 7.014 0.794 12.058 7.117 11.29 14.157l-16.060 142.215 186.011 120.797v-221.779l-127.997-64.023c-6.323-3.174-8.883-10.854-5.734-17.178 2.253-4.454 6.758-7.066 11.469-7.066 1.92 0 3.866 0.435 5.709 1.357l116.554 58.266v-122.799c0-7.066 5.734-12.8 12.8-12.8s12.8 5.734 12.8 12.8v122.799l116.554-58.266c1.843-0.922 3.789-1.357 5.709-1.357 4.71 0 9.216 2.611 11.469 7.066 3.149 6.323 0.589 14.003-5.734 17.178l-127.997 64.023v221.779l186.011-120.797-16.060-142.215c-0.768-7.040 4.275-13.363 11.29-14.157 0.486-0.051 0.973-0.077 1.459-0.077 6.426 0 11.981 4.813 12.723 11.366l14.599 129.49 102.99-66.882c2.176-1.408 4.582-2.074 6.963-2.074 4.198 0 8.294 2.048 10.752 5.837 3.84 5.914 2.15 13.85-3.763 17.69l-103.014 66.903 112.356 66.031c6.093 3.558 8.141 11.418 4.557 17.485-3.584 6.118-11.418 8.166-17.51 4.557l-123.403-72.485z" />
<glyph unicode="&#x7a;" glyph-name="device_heating" data-tags="device_heating" d="M512 25.6c-67.968 0-134.963 28.544-183.808 78.336-50.509 51.994-75.981 121.165-77.926 211.507-3.328 148.25 62.874 285.21 118.963 373.965 32.179 49.664 68.198 96.563 107.136 139.546 18.33 20.147 52.966 20.122 71.245 0.026 39.014-43.059 75.008-89.958 107.059-139.443 56.192-88.858 122.368-225.792 119.066-374.118-1.946-90.317-27.418-159.488-77.875-211.43-48.896-49.843-115.891-78.387-183.859-78.387zM512 819.2c-6.4 0-12.288-2.637-16.666-7.45-38.016-41.958-73.19-87.757-104.525-136.141-54.144-85.658-118.118-217.702-114.944-359.603 1.792-83.584 24.909-147.098 70.656-194.202 43.981-44.851 104.32-70.605 165.478-70.605s121.498 25.754 165.53 70.656c45.696 47.053 68.813 110.566 70.605 194.125 3.174 141.952-60.8 273.997-115.021 359.757-31.232 48.205-66.406 94.003-104.474 136.038-4.352 4.787-10.24 7.424-16.64 7.424zM512 122.696c-35.098 0-69.658 14.362-94.874 39.373-26.112 26.214-39.27 60.826-40.294 105.907-1.664 72.73 31.488 139.597 59.571 182.886 16.026 24.090 33.971 46.822 53.376 67.712 11.546 12.314 33.024 12.262 44.442 0 19.405-20.89 37.35-43.622 53.299-67.61 28.16-43.392 61.312-110.259 59.648-182.989-0.998-45.056-14.157-79.693-40.243-105.856-25.267-25.062-59.853-39.424-94.925-39.424zM512 502.625c-0.768 0-2.253-0.205-3.507-1.536-18.432-19.814-35.507-41.472-50.688-64.282-26.061-40.141-56.883-102.042-55.373-168.269 0.845-38.17 11.571-67.072 32.768-88.346 20.403-20.25 48.435-31.898 76.8-31.898s56.397 11.648 76.851 31.949c21.171 21.222 31.872 50.125 32.717 88.294 1.51 66.227-29.312 128.128-55.45 168.397-15.104 22.682-32.179 44.339-50.637 64.205-1.229 1.28-2.714 1.485-3.482 1.485z" />
<glyph unicode="&#xd1;" glyph-name="plug_IN" data-tags="plug_IN" d="M600.471 25.6h-176.947c-72.218 0-130.995 58.778-130.995 130.995v557.21c0 72.218 58.778 130.995 130.995 130.995h176.947c72.218 0 130.995-58.778 130.995-130.995v-557.21c0-72.218-58.778-130.995-130.995-130.995zM423.524 819.2c-58.138 0-105.395-47.283-105.395-105.395v-557.21c0-58.112 47.258-105.395 105.395-105.395h176.947c58.138 0 105.395 47.283 105.395 105.395v557.21c0 58.112-47.258 105.395-105.395 105.395h-176.947zM376.924 660.675c-0.179 0-0.384 0-0.563 0.026-7.091 0.307-12.544 6.298-12.211 13.338 2.048 45.696 33.766 85.274 77.158 96.256 6.861 1.818 13.798-2.432 15.539-9.242 1.741-6.861-2.406-13.824-9.242-15.565-32.538-8.269-56.32-38.118-57.907-72.576-0.307-6.886-5.939-12.237-12.774-12.237zM512 374.774c21.581 0 39.040-17.485 39.040-39.040s-17.459-39.040-39.040-39.040c-21.581 0-39.040 17.485-39.040 39.040s17.459 39.040 39.040 39.040zM433.9 238.126c21.581 0 39.040-17.51 39.040-39.040 0-21.581-17.459-39.066-39.040-39.066-21.555 0-39.040 17.485-39.040 39.066 0 21.53 17.485 39.040 39.040 39.040zM590.1 238.126c21.555 0 39.040-17.51 39.040-39.040 0-21.581-17.485-39.066-39.040-39.066-21.581 0-39.040 17.485-39.040 39.066 0 21.53 17.459 39.040 39.040 39.040z" />
<glyph unicode="&#xf1;" glyph-name="appliance" data-tags="appliance" d="M785.887 43.305h-547.784v-4.792c0-6.861-5.555-12.442-12.442-12.442h-24.909c-6.861 0-12.442 5.581-12.442 12.442v4.792h-33.198c-25.37 0-46.003 20.634-46.003 46.003v697.165c0 25.37 20.634 46.003 46.003 46.003h713.779c25.37 0 46.003-20.634 46.003-46.003v-697.165c0-25.37-20.634-46.003-46.003-46.003h-33.213v-4.792c0-6.861-5.555-12.442-12.442-12.442h-24.909c-6.861 0-12.442 5.581-12.442 12.442v4.792zM889.295 724.582v61.891c0 11.264-9.165 20.403-20.403 20.403h-713.779c-11.238 0-20.403-9.139-20.403-20.403v-61.891h754.586zM889.295 698.982h-754.586v-609.674c0-11.264 9.165-20.403 20.403-20.403h713.779c11.238 0 20.403 9.139 20.403 20.403v609.674zM512 192.712c-121.472 0-220.288 98.816-220.288 220.288s98.816 220.288 220.288 220.288c121.472 0 220.288-98.816 220.288-220.288s-98.816-220.288-220.288-220.288zM512 607.688c-107.341 0-194.688-87.347-194.688-194.688 0-107.366 87.347-194.688 194.688-194.688s194.688 87.322 194.688 194.688c0 107.341-87.347 194.688-194.688 194.688zM512 296.451c-64.256 0-116.557 52.275-116.557 116.531 0 64.282 52.301 116.557 116.557 116.557s116.557-52.275 116.557-116.557c0-64.256-52.301-116.531-116.557-116.531zM512 503.939c-50.15 0-90.957-40.806-90.957-90.957 0-50.125 40.806-90.931 90.957-90.931s90.957 40.806 90.957 90.931c0 50.15-40.806 90.957-90.957 90.957zM574.275 407.475c-6.707 0.179-12.8 5.734-12.8 12.8 0 9.651-3.738 18.765-10.624 25.626-6.886 6.912-16.026 10.701-25.728 10.701-7.066 0-12.8 5.734-12.8 12.8 0 7.091 5.734 12.8 12.8 12.8 16.563 0 32.128-6.451 43.853-18.202 11.699-11.725 18.125-27.264 18.099-43.75 0-7.066-5.734-12.774-12.8-12.774zM292.739 752.924c-7.168 0-12.954 5.632-12.954 12.8s5.786 12.8 12.954 12.8h29.235c7.142 0 12.928-5.632 12.928-12.8s-5.786-12.8-12.928-12.8h-29.235zM218.051 752.924c-7.168 0-12.954 5.632-12.954 12.8s5.786 12.8 12.954 12.8h29.21c7.168 0 12.954-5.632 12.954-12.8s-5.786-12.8-12.954-12.8h-29.21z" />
</font>
</defs>
</svg>
